<?xml version="1.0" encoding="UTF-8"?>
<svg id="Layer_1" data-name="Layer 1" xmlns="http://www.w3.org/2000/svg" viewBox="0 0 200 200">
  <defs>
    <style>
      .cls-1 {
        fill: none;
        stroke: #fff;
        stroke-linecap: round;
        stroke-linejoin: round;
        stroke-width: 7px;
      }
    </style>
  </defs>
  <path class="cls-1" d="m7.7,30.08c8.38-4.92,19.68.67,24.64,9.02s5.43,18.51,6.45,28.17c1.66,15.79,5.1,31.38,10.22,46.41,1.59,4.66,3.47,9.46,7.15,12.74,5.04,4.5,12.31,5.21,19.06,5.58,28.72,1.59,57.55.96,86.17-1.89-18.37,1.1-36.89,2.2-55.11-.4s-36.34-9.22-49.82-21.75c11.48-7.24,25.89-7.41,39.46-7.35,15.13.06,30.27.12,45.4.19,7.24.03,14.85-.03,21.17-3.56,14.05-7.85,14.57-27.53,13.27-43.57-.16-1.97-.35-4.03-1.48-5.65-1.65-2.39-4.8-3.12-7.67-3.56-42.66-6.45-88.86,12.98-128.11-4.93-8.17-3.73-16.18-9.1-25.16-8.82,11.41-5.13,25.58-3.47,35.5,4.16-11.77,3.25-24.57,2.62-35.96-1.77,7.46-2.16,15.36-2.83,23.08-1.96-2.32,1.55-5.73-1.99-4.1-4.25,11.57,23.18,19.21,48.33,22.49,74.03-4.7-19.31-9.39-38.62-14.09-57.93,5.61,23.47,11.22,46.94,16.83,70.41-8.98-25.88-16.88-52.13-23.67-78.67,3.1,21.81,8.59,43.21,15,64.29,3.42,11.26,7.3,22.78,15.09,31.6,11.31,12.8,30.03,17.93,46.71,14.3,19.3-4.2,37.42-18.94,56.61-14.22-35.02,2.04-70.1,2.92-105.18,2.64,29.79-.89,59.63-.39,89.38,1.52-17.33,3.18-34.98,4.59-52.6,4.21-15.19-.33-32.21-2.99-41.25-15.2-1.58-2.14-2.89-4.65-2.81-7.31.23-7.18,9.32-10.03,16.48-10.55,38.78-2.83,81.31,4.02,113.66-17.55-6.97-17.1-9.39-36.03-6.94-54.33-36.5,7.6-76.05,14.89-109.81-.94,33.26,1.68,66.56,2.44,99.86,2.29-39.58,17.02-84.19,22.16-126.61,14.58-1.14-.2-2.4-.49-3.05-1.45-1.47-2.16,1.46-4.61,3.93-5.47,16.64-5.8,35.51-4.9,51.53,2.44-17.47,2.45-35.33,2.08-52.69-1.11,46.24-5.47,93.09-5.82,139.41-1.02-.49,14.77-2.96,29.47-7.32,43.59-2.81,9.12-6.97,18.67-15.26,23.42-11.47,6.57-25.74,1.52-38.39-2.33-20.04-6.1-41.09-8.83-62.02-8.03"/>
  <path class="cls-1" d="m55.16,159.57l11.1-1.28c1.09-.13,2.31-.22,3.18.46.79.62,1.04,1.69,1.2,2.68.5,3.15.54,6.62-1.31,9.22s-6.19,3.49-8.19,1.01c-.9-1.12-1.14-2.65-1-4.07.44-4.3,4.72-7.98,8.98-7.27s7.1,6.18,4.83,9.86c-1.02,1.66-2.77,2.73-4.57,3.47-3.26,1.35-7.07,1.74-10.3.33s-5.65-4.93-5.12-8.42c.78-5.1,7.65-7.54,12.2-5.11s6.57,8.12,6.15,13.26c-.06.72-.17,1.47-.59,2.06-.42.59-1.09.94-1.75,1.24-3.56,1.62-7.67,2.35-11.4,1.2s-6.92-4.47-7.15-8.37,3.15-7.86,7.05-7.59c5.68.4,7.64,7.66,8.07,13.34.06.83.11,1.72-.33,2.42-.44.7-1.27,1.05-2.07,1.27-6.5,1.77-13.79-3.38-14.83-10.04s3.8-13.53,10.28-15.35c2.02-.57,4.27-.68,6.15.26,1.95.99,3.19,2.94,4.27,4.84,1.84,3.23,3.54,6.64,4,10.33s-.54,7.74-3.36,10.16c-3.75,3.23-9.89,2.56-13.56-.75s-5.06-8.64-4.53-13.56c.45-4.24,2.47-8.63,6.28-10.53,3.5-1.74,7.9-1,11.12,1.22s5.39,5.71,6.76,9.37c.32.85.6,1.8.23,2.63s-1.67,1.22-2.17.47"/>
  <path class="cls-1" d="m155.39,167.58c.33-2.9,3.09-5.32,6-5.25,3.56.08,6.43,3.6,6.52,7.16s-2.06,6.9-4.91,9.04c-5.05,3.79-12.71,4.06-17.55.01s-5.72-12.3-1.31-16.82,13.34-3.35,15.88,2.44c1.54,3.51.59,7.84-1.94,10.71s-6.45,4.33-10.28,4.32c-1.36,0-2.75-.19-3.95-.83-1.58-.85-2.68-2.44-3.21-4.15-1.52-4.85,1.85-10.64,6.82-11.71s10.42,2.81,11.04,7.86-3.76,10.12-8.84,10.27c-.61.02-1.27-.04-1.76-.42-.45-.36-.67-.93-.84-1.48-2.2-7.31,2.18-15.96,9.37-18.52.72.46.5,1.79-.33,1.99"/>
</svg>