<?xml version="1.0" encoding="utf-8"?>
<!-- Generator: Adobe Illustrator 27.1.1, SVG Export Plug-In . SVG Version: 6.00 Build 0)  -->
<svg version="1.1" id="Layer_1" xmlns="http://www.w3.org/2000/svg" xmlns:xlink="http://www.w3.org/1999/xlink" x="0px" y="0px"
	 viewBox="0 0 940.4 217.6" style="enable-background:new 0 0 940.4 217.6;" xml:space="preserve">
<style type="text/css">
	.st0{fill:#F5C684;}
	.st1{fill:#FFFFFF;}
	.st2{fill:#56A7DC;}
</style>
<g id="fugu_1">
	<path class="st0" d="M247.9,67.6c0,0.7-0.4,1.4-0.9,1.8c-1.2,0.9-2.2,3.1-3.2,4.3c-1.5,1.8-2.8,3.8-3.9,5.9
		c-2.3,4.4-2.4,9.8-4.4,14.4c-1.6,3.6-2.6,7.4-3.5,11.2c-0.9,3.7-2.6,7.2-4.3,10.6c-1.1,2.2-2.5,4.2-3.5,6.4c-0.9,2-1.6,3.7-3,5.5
		c-0.4,0.5-0.8,1.1-1.2,1.6c-0.9,1.4-1.4,2.9-1.9,4.5c-0.7,2.1-1.5,4.5-3.4,6.8c-0.5,0.6-0.9,1.1-1.4,1.7c-2,2.5-4.1,5.1-7.1,7.1
		c-4.3,2.8-8.3,4-13.5,5.1c-1.9,0.4-3.7,0.9-5.7,1.6c-2.9,0.9-5.9,1.9-9.2,2.1c-1.3,0.1-2.6,0.1-3.9,0.1c-1.3,0-2.5,0-3.7,0.1
		c-1.8,0.2-3.5,0.6-5.1,0.9c-2.3,0.5-4.6,1-7.2,1c-1.2,0-2.4-0.1-3.7-0.4c-5.6-1.1-11.3-1.9-16.7-2.4c-1.2-0.1-2.6-0.2-4.1-0.3
		c-6.9-0.4-15.5-0.8-20.3-6.4c-1.5-1.7-3.1-2.6-5.2-3.6c-0.9-0.5-1.9-0.9-2.9-1.6c-2.5-1.5-4.9-3.1-7.3-4.7c-1.5-1-2.9-2-4.4-2.9
		c-1.9-1.2-3.8-2.2-5.9-3.4c-5.8-3.2-11.8-6.5-15.5-12.5c-1-1.7-2-3.3-2.9-5c-1.4-2.4-2.9-4.9-4.5-7.3c-0.3-0.5-0.6-1-1-1.5
		c-1.1-1.7-2.2-3.4-3.1-5.2c-0.4-0.9-0.9-1.8-1.2-2.8c-0.3-0.9,0-1.8,0.1-2.7c0.3-2.6-0.2-5.3-1.3-7.7c-0.3-0.7-0.5-1-0.5-1.7
		c0-0.5,0-1.1,0.1-1.6c0.1-0.7,0.4-1.3,0.8-1.8c0.6-0.7,1.4-1,2.3-0.9c2,0.2,3.9,0.6,5.9,1.1c0.7,0.2,1.2,0.6,1.5,1.2
		c0.3,0.6,0.3,1.3,0,2c-0.9,1.8-1.2,5.1-0.3,6.6c0.3,0.4,0.5,0.5,0.9,0.6c1,0.1,1.9,0.8,2.1,1.7c0.5,1.9,1.2,3.9,2.1,4
		c1.1,0.1,1.9-0.2,2.6-0.9c2-2.3,2-7.9,1.8-10.9c-1.9,0-3.9-0.3-5.9-1.1c-0.7-0.3-1.2-0.8-1.4-1.5c-0.2-0.7-0.1-1.4,0.3-2
		c0.9-1.2,1.9-2.1,2.9-3c1.3-1.2,2.5-2.2,2.9-3.7c0.5-1.6,1.9-1.8,5.5-2.5c0.8-0.1,1.9-0.4,2.2-0.5c0.1-0.1,0.2-0.2,0.3-0.3
		c-0.1,0-0.1-0.1-0.1-0.1c-1.1-0.7-1.3-2.2-0.7-3.2c0.7-0.9,1.9-1.3,2.9-0.8c1.8-0.2,7.4-4.3,11.3-7.8c0.7-0.6,1.7-0.8,2.5-0.4
		c0.8,0.4,1.4,1.2,1.4,2.1c0,7.1-4.7,11-8.8,14.4c-3.2,2.7-6.1,5-6.5,8.6c-0.2,2.2,0.6,5.2,1.6,5.8c0.5,0.3,1.6,0.4,2.6,0.5
		c1.3,0.1,2.8,0.3,4.1,0.9c3.1,1.3,5.8,3.2,8.5,5c1.1,0.7,2.2,1.5,3.3,2.2c1.1,0.7,1.9,1.4,2.7,2c2.1,1.7,2.1,1.7,3.6,0.2
		c2.7-2.7,4.7-5.8,5.6-8.8c0.6-2,1.3-4,2.1-5.9c1.1-3,2.2-6.1,2.8-9c0.4-1.9,0.6-3.9,0.7-5.9c0.4-3.8,0.7-7.7,2.4-11.5
		c0.4-0.9,1.5-1.5,2.5-1.4c2.7,0.4,4.6,7.4,4.6,7.4c0.1,0.9,0.1,2.6-0.1,5.6c-0.2,3-0.5,9.1,0.1,11c4.5,1.8,6.5,1.5,7.2,1.2
		c0.4-0.2,0.7-0.5,0.9-0.9c0.4-0.9,1.2-1.4,2.1-1.5c10.4-0.2,17.2-2.6,20.8-7.2c0.3-0.4,0.6-0.9,0.8-1.4c0.7-1.5,1.7-3.6,4.4-4.3
		c0.8-0.2,1.6,0,2.2,0.5c0.6,0.5,0.8,1.3,0.7,2.1c-0.5,2.5,3.4,6.4,6.5,9.5c2.6,2.6,5,4.9,6.1,7.4c0.3,0.7,0.6,1.5,0.9,2.3
		c0.9,2.2,2.3,6,3.9,6.4c0.7,0.2,1.7-0.4,2.4-0.9c0.9-0.7,3.9-2.9,4.9-4.4c0.8-1.2,0.8-3.2,0.9-5.3c0.1-3.7,0.2-8.3,4.6-10.8
		c0.9-0.5,1.7-0.9,2.6-1.3c2.9-1.3,4.2-1.9,4.2-4.5c-0.4-0.1-1.1-0.1-1.9,0c-2.1,0-5.2,0.2-7.6,0.4c-0.8,0.1-1.6,0.2-2.4,0.2
		c-6.5,0-11.9-4.5-13.4-10.5c-0.3-1-0.4-2.1-0.4-3.2c0-3.1,1.1-6,2.8-8.3c2.4-3.2,6.3-5.3,10.7-5.4c0.1,0,0.2,0,0.3,0
		c1.4,0,2.8,0.2,4.1,0.7c1.2,0.4,2.4,0.9,3.5,1.7c0.1,0.1,0.2,0.2,0.4,0.3c1.4,1,2.6,2.2,3.6,3.6c0.9,1,1.8,1.8,2.8,2.5
		c0.3,0.2,0.9,0.4,1.6,0.6c1.1,0.3,2.4,0.6,3.2,0.7c0.3-5.9,5.7-11.2,11.3-12.9c4.3-1.4,14.6,3.3,16.9,6.4c0.5,0.7,0.7,1.5,0.5,2.2
		c-0.4,1.7-2,2.6-3.2,3.3c-0.1,0.1-0.3,0.1-0.4,0.2l-0.2,0.2c-0.9,0.7-1.3,1.5-1.3,2.5c0,3.1,1.4,8,5.3,8
		C246.9,65.3,247.9,66.3,247.9,67.6L247.9,67.6z"/>
	<path class="st1" d="M209.2,51.6c0.9,1.4,1.6,3,2,4.8c0.2,0.9,0.3,1.8,0.3,2.8c0,4.5-2.2,8.5-5.5,11c-1.7,1.3-3.7,2.2-5.8,2.6
		c2.4-0.2,5.4-0.4,7.6-0.4c0,0-0.1,0-0.1,0.1c-2.8,2.1-6.2,3.3-9.9,3.3c-9.1,0-16.5-7.4-16.5-16.5s7.4-16.5,16.5-16.5
		c7.6,0,13.9,5.1,15.9,12c-0.7-0.2-1.3-0.4-1.6-0.6C211,53.4,210.1,52.6,209.2,51.6z"/>
	<path class="st2" d="M186,39.5c0.6,2,1,4.6-0.7,5.9c-0.9,0.7-2.2,0.7-3.3,0.6c-2.1-0.1-4.2-0.5-5.8-1.9s-2.1-4-0.7-5.5
		c1.2-1.3,3.2-1.2,5-0.8c2.1,0.4,4,1.1,5.9,2 M157.1,51.5c-0.5,0.2-1,0.5-1.4,0.9c-0.7,0.7-0.9,1.7-1,2.7c-0.1,1.7,0.1,3.4,1.2,4.7
		c0.3,0.4,0.7,0.7,1.1,1.1c1.5,1.2,3,2.5,4.5,3.7c0.6,0.5,1.3,1,2.1,1.2c0.6,0.1,1.1,0,1.7-0.2c0.9-0.2,1.8-0.5,2.3-1.1
		c0.4-0.5,0.6-1.2,0.7-1.9c0.3-1.4,0.5-2.8,0.7-4.2c0.1-0.9,0.2-1.9,0.1-2.8c-0.7-4-5-4.9-8.4-4.8C159.5,50.8,158.3,51,157.1,51.5
		L157.1,51.5z M147,42.3c-1.8-0.2-3.6,0-5.3,0.2c-0.7,0.1-1.5,0.2-2.1,0.5c-1.2,0.5-2.1,1.5-2.5,2.8s-0.2,2.6,0.4,3.7
		c0.3,0.6,0.8,1.1,1.3,1.5c1.2,1.2,2.4,2.5,3.8,3.4c0.4,0.2,0.8,0.5,1.2,0.5c0.5,0.1,1-0.1,1.5-0.2c1-0.4,1.9-0.9,2.9-1.5
		c0.4-0.3,0.9-0.5,1.3-0.9c0.7-0.8,0.9-1.9,0.9-3c0-1.2-0.2-2.5-0.6-3.6C149.2,44.5,148.6,42.5,147,42.3L147,42.3z M127.4,51.4
		c-0.2,0.5-0.1,1.3-0.1,1.9c0,0.2,0,0.5,0.1,0.7c0.2,0.7,1,0.8,1.6,1.2c0.8,0.4,1.3,1.2,2.1,1.6c0.8,0.5,1.8,0.5,2.8,0.2
		s1.7-0.8,2.3-1.5c0.3-0.3,0.6-0.7,0.7-1.1c0.2-0.8-0.2-1.6-0.5-2.3c-0.2-0.4-0.3-0.9-0.6-1.2c-0.5-0.6-1.3-0.8-2-0.9
		c-0.4-0.1-0.8-0.2-1.2,0c-0.2,0.1-0.4,0.2-0.6,0.3c-0.6,0.4-1.4,0.4-2.1,0.3c-0.5,0-1.3-0.3-1.8,0c-0.2,0.1-0.4,0.3-0.5,0.6
		c-0.1,0.1-0.1,0.1-0.2,0.2C127.5,51.2,127.4,51.3,127.4,51.4z M112.3,60.7c-0.9,0.4-1.7-0.8-2.5-0.1c-0.3,0.2-0.5,0.5-0.6,0.8
		c-0.6,1-0.2,2.5-0.3,3.6c0,0.8-0.1,1.6-0.1,2.4s0.2,1.6,0.6,2.2s1.3,1.1,2.1,0.9c0.3-0.1,0.6-0.3,1-0.3c0.9-0.2,2,0.3,2.8-0.1
		c0.4-0.2,0.6-0.5,0.9-0.7c0.5-0.4,1.1-0.5,1.7-0.8s0.9-0.9,1.4-1.2c0.4-0.2,0.8-0.3,1.2-0.5c0.4-0.2,0.7-0.6,0.9-1
		c0.1-0.3,0.2-0.7,0.2-1.1c0-0.7,0.1-1.4,0.1-2.1c0-0.3,0-0.5-0.1-0.8c-0.2-0.3-0.5-0.5-0.8-0.6c-0.5-0.2-1-0.6-1.3-1
		c-0.4-0.4-0.7-0.8-1.2-0.9c-0.7-0.1-1.3,0.5-1.9,0.4c-0.2,0-0.4-0.2-0.6-0.3c-0.3-0.2-0.6-0.4-0.9-0.6c-0.3-0.2-0.7-0.4-1-0.3
		c-0.4,0.1-0.6,0.6-0.8,1S112.7,60.5,112.3,60.7L112.3,60.7z M92.2,50c-0.6,0.2-1.1,0.7-1.3,1.3s-0.3,1.2-0.3,1.9
		c0,0.8,0.2,1.5,0.6,2.2c0.1,0.1,0.1,0.2,0.2,0.3c0.1,0.1,0.3,0.2,0.5,0.2c0.7,0.2,1.4,0.4,2.1,0.3c0.3,0,0.6-0.6,0.7-0.9
		c0.4-0.9,0.7-1.8,0.8-2.7c0.1-0.6,0-2.2-0.6-2.6c-0.2-0.2-0.8,0-1.1,0C93.2,49.9,92.7,49.8,92.2,50L92.2,50z M55,78
		c-1.1-2.3-3.3-5.7-6.3-3.9c-1.3,0.8-2,2.3-2.1,3.9s0.3,3.1,0.9,4.5c2,5.5,5.4,10.6,10,14.2c0.6,0.5,1.5,0.9,2,0.3
		c0.2-0.3,0.1-0.8,0-1.2c-0.5-1.7-1.1-3.5-1.6-5.2c-0.1-0.5-0.3-0.9-0.5-1.3c-0.4-0.6-1-1-1.6-1.1C56.8,84.9,56.5,81.1,55,78L55,78z
		 M25.8,23c-0.9,1.9-1.2,4-2.1,6c-0.8,1.7-2,3.2-3.6,4.4c-0.6,0.4-1.2,0.8-1.9,0.8c-0.5,0-1-0.3-1.5-0.5c-1-0.5-2.1-0.8-3.3-1.1
		c-0.5-0.1-1-0.1-1.3,0.2c-0.2,0.2-0.3,0.5-0.4,0.8c-0.4,1.4-0.8,2.7-1.2,4.1c-1.2,0.1-2.3,0.2-3.5,0.3c-0.5,0-1.1,0.1-1.3,0.5
		c-0.2,0.3-0.2,0.6-0.2,0.9c-0.1,1.8-0.1,3.7-0.2,5.5c-0.1,2.2-0.1,4.5,0.6,6.6c0.7,1.8,1.8,3.3,3,4.8c0.7,0.9,1.4,1.7,2.1,2.6
		c1.8,2.2,3.6,4.5,5.8,6.4c3.2,2.8,7.2,4.6,11.4,5.2c1.2,0.2,2.5,0.3,3.6-0.3c1.1-0.6,1.8-2.1,1.1-3.1c-0.2-0.4-0.7-0.7-0.7-1.2
		c-0.1-0.9,1-1.3,1.5-1.9c1-1,0.6-2.7,0-4c-0.1-0.3-0.2-0.6-0.2-0.9c0.1-1.1,2-1.2,2.2-2.3c0.1-0.4-0.1-0.7,0-1.1
		c0.2-0.7,1.2-0.8,1.9-1c2.5-0.4,4.7-2.6,5-5.1c0-0.4,0-0.8-0.1-1.2c-0.3-0.7-1-1-1.5-1.5c-1.4-1.2-1.7-3.2-2.5-4.8
		c-0.8-1.9-2.3-3.5-4.2-4.6c0.3-4,0.4-8.1,0.2-12.1c0-1.5-0.1-3-0.8-4.4C31.6,16.9,27.1,19.9,25.8,23L25.8,23z M70.2,124.1
		c-2.1-2.6-5.7-2.2-8.2-0.5c-2.7,1.7-4.6,4.6-5.1,7.7c-0.2,1.3-0.2,2.6-0.2,3.9c0,3.8,0.1,7.6,1,11.3c0.9,3.4,2.4,6.6,3.1,10
		c0.2,1,0.3,2,0.6,2.9c0.4,1.1,1,2.1,1.7,3.1c0.9,1.2,2,2.4,3.5,2.3c1-0.1,1.8-0.6,2.6-1.2c0.4-0.3,0.8-0.6,1.2-0.9
		c3.8-2.9,7.7-5.8,10.1-10c1.8-3,2.6-6.6,2.4-10c0-0.2-0.1-0.5-0.2-0.7c-0.4-0.4-1-0.1-1.5-0.2c-0.8-0.2-1.2-1.4-2-1.5
		c-0.2,0-0.4,0.1-0.6,0.1c-0.9,0.1-1.5-1-1.8-1.9c-0.5-1.5-0.9-3.1-1.7-4.5c-0.5-0.8-1.2-1.6-1.7-2.4
		C71.9,129.2,71.9,126.1,70.2,124.1L70.2,124.1z M88.8,10.6c-1-0.6-2.2-0.3-3.3-0.6c-0.4-0.1-0.8-0.3-1.2-0.4
		c-2.2-0.7-4.3-0.2-6.3,0.8c-2.5,1.3-4.4,3.6-5.7,6.1c-0.5,0.9-0.9,1.9-1.1,3c-0.4,2.8,0.9,5.5,1.6,8.3c0.4,1.7,0.6,3.4,1.4,5
		c0.4,0.9,1.1,1.7,1.7,2.5c0.9,1.2,1.8,2.3,2.7,3.5c0.5,0.7,1.1,1.4,1.8,2c0.9,0.8,2,1.2,3.1,1.7c1.1,0.5,2.2,0.9,3.4,1.2
		c0.9,0.2,2,0.2,2.3-0.7c0.2-0.5,0-1.1,0-1.7s0.1-1.3,0.6-1.4c0.3-0.1,0.8,0,0.9-0.2c0.2-0.2,0-0.5,0-0.8c0-0.5,0.6-0.8,1.1-0.9
		s1,0,1.5-0.2c1.1-0.5,1.3-2.1,2.2-2.8c1-0.8,2.4-0.4,3.6,0c-0.6-1.6,0.2-3.5,1.6-4.3c1.3-0.8,3-0.7,4.2-1.6
		c0.1-1.2-0.6-2.4-1.5-3.3s-1.9-1.6-2.8-2.5c-1.2-1.1-2.1-2.4-3-3.8c-1.8-2.5-3.7-5-6.2-6.9C90.8,12,89.8,11.1,88.8,10.6L88.8,10.6z
		 M159.9,100.4c-0.6-2-2.7-0.8-3.7,0.2c-2.2,2.3-4.4,4.7-5.5,7.6c-1,2.5-1.1,5.2-0.4,7.8c0.2,0.7,0.6,1.6,1.3,1.8
		c1,0.3,1.9-0.7,2.1-1.7c0.1-0.5,0.2-1.2,0.7-1.2c0.3,0,0.5,0.2,0.7,0.4c0.9,1,1.8,2,2.7,3c0.1,0.1,0.2,0.2,0.2,0.4
		c0,0.2-0.1,0.3-0.2,0.5c-0.8,1.1-1.1,2.4-0.9,3.7c0.1,0.3,0.2,0.7,0.4,0.9c0.2,0.2,0.6,0.3,0.9,0.3c1.7,0.1,3.5-0.9,4.2-2.5
		c0.2-0.5,0.7-1.2,1.2-0.9c0.1,0.1,0.2,0.2,0.2,0.4c0.3,1.1,0,2.4,0.7,3.3c0.8,1.1,2.3,1.1,3.6,1c1.4-0.1,3-0.5,3.5-1.8
		c0.4-1.2-0.4-2.4-1.1-3.5c-1.2-1.7-2.2-3.6-2.4-5.7c-0.1-1.1-0.1-2.2-0.2-3.2c-0.2-1.4-0.7-2.7-1.6-3.8c-0.2-0.2-0.4-0.4-0.6-0.5
		c-0.5-0.1-0.9,0.3-1.1,0.7s0,0.9,0.1,1.4c-0.9-0.7-1.6-1.7-1.9-2.8c-0.1-0.4-0.2-0.8-0.5-1.1c-0.3-0.3-0.8-0.5-1.1-0.8
		C159.6,103.5,160.4,101.9,159.9,100.4L159.9,100.4z"/>
	<path d="M203.7,59.2c0,3.3-2.7,6-6,6s-6-2.7-6-6s2.7-6,6-6S203.7,55.9,203.7,59.2z M250,65.6c0.2,4.5-2.4,6.2-4.6,8.3
		c-0.9,0.7-1.7,1.5-2.4,2.4c-0.3,0.3-0.6,0.7-0.8,1c-3.7,5.2-1.9,13.6-4.7,19.4c-0.7,1.5-2.4,2.6-3,3.9c-1.6,3.7-0.8,7.7-2.4,11.1
		c-1.6,3.4-4.2,5-4.9,8.7c0,1,1.6,0.4,1.8,1.2c-5.1,15.3-16.6,24.3-25.9,35.4c-2.9,0.1-5.4,2.4-8.5,1c-8.7,4.3-21,5-34.1,5h-12.7
		c-0.6,0.1-1.7-0.3-2,0.2c-3.1,0.4-5.4-0.1-6.1-2.2c-7.5,0.1-14.6-1.9-21-4.6c-9.2-3.8-17.8-6.8-22.7-14.1c-0.7-0.9-1.5-1.6-2.4-2.4
		c-3-2.6-7.9-3.3-10.3-6.5c-1.2-0.3-1.9,0.8-2.8,0.2c-1.1-0.7-1.7-1.8-2.8-2.6c-5.3-5.7-10-12.9-14.3-20.5c-0.4-0.7-0.8-1.4-1.2-2.1
		c-1.3-2.3-1.7-3.9-4.5-4.2c-1.6-2.9-2.5-6.5-6.7-6.7c-0.3-1.5-1.1-2.4-1.4-4c-0.6-0.4-2.1,0-2.8-0.4c-3.7-5.9-8.1-11.2-12.1-16.8
		c-3.1,0.3-4.6-2.9-7-4.2c-1.6-0.8-4.2-0.8-6.1-1.8c-2.1-1.1-2.8-3.6-5.9-2.8c-1.5-1-1.9-3.1-3.8-3.8c-0.3-0.9,0.7-0.5,0.6-1.2
		C7.7,58.2,4.7,51.6,0,46.8V44c1.1-8.7,4.4-13.2,11.3-15.7c2.5-0.9,5.3-0.9,6.9-3c0.8-0.6,1.5-1.4,2.2-2.2c3.2-3.5,5.5-7.8,9.1-10.9
		c1.7,1,3.2,2.2,5,3.2c2.9,5.6,1.4,13.4,3.5,19.2c1,2.8,3,6.4,4.5,9.3c1.6,2.9,3.8,5.5,6.3,7.3c3-1.4,6.5-2.4,10.9-2.4
		c0.7-0.1,1.8,0.2,2.2-0.2h3.4c1.2,0.3,3.8,0.3,4.9,0c2.8,0,5.2,0,7.7-0.6c2.2-0.5,4-2,5.7-2.4c2.1-0.4,4.4,0.1,6.5,0
		c13.3-0.5,25.4-5.1,38-6.7c1.1-0.2,0-1.3,0.8-1.8c7.1-0.6,14.2-1.2,21.8-1.4h8.9c3.2,0.1,6.3,0.3,9.3,0.6c0.8,0,0.1-1.4,0.4-1.4
		h5.9c8.1,0,15.7,1.3,23.4,2.2c7.6,0.9,15.4,1.3,23.6,1.8c7.5,0.5,16.1,2.8,21.4,6.7c1.6,1.2,4.3,3.4,4.4,5c0.2,3-4.6,3.5-5.6,6
		C240.4,62.2,245.7,64.6,250,65.6L250,65.6z M33.1,26.4c0-2,0.1-4-1-5C32.2,23.3,31.7,25.8,33.1,26.4z M32.3,34.1
		c0-3.1,0.3-6.6-1-8.5C30.9,28.4,31,32.3,32.3,34.1z M28.7,26c0.1-1.2,0.6-3.1-0.6-3.5C27.4,23.4,27.6,25.7,28.7,26z M31.9,43.8
		c0.3-6.5-1.2-11.2-3-15.6c-0.9,3,1.9,6.6-0.2,8.9c-0.4-4.2,0-9.2-2-11.9C25.9,33.2,27.3,40.5,31.9,43.8L31.9,43.8z M27.7,45.8
		c0.6-1.8-0.2-3.9-1.4-4.5C26.3,43.2,26.2,45.4,27.7,45.8z M28.5,55.1c0.3-1.5-0.4-3.5-2-3.8C25.3,52.7,26.4,55.3,28.5,55.1z
		 M26.3,57.1v3c1,0.5,1.5,1.4,2.8,1.6C29.9,59.1,28.5,57.3,26.3,57.1z M25.5,56.3h-1.4c0.1,1.6-0.5,3.8,1.4,3.5
		C26.5,58.9,25.2,57.8,25.5,56.3z M23.8,47c-0.7,1.9-0.7,5.5,1.4,5.7C25.7,50.5,25.1,47.9,23.8,47z M24.8,40.4
		c-0.1-2.5,0.5-5.8-1.4-6.5C22.9,36.3,22.6,39.7,24.8,40.4z M22.6,50.9c0.6-3.5,0.7-8.2-2-9.5C20.3,45.1,19.6,49.7,22.6,50.9z
		 M19.4,46.6c0.6-3.8-0.1-8-1.8-10.1C16.8,39.8,16.5,45.3,19.4,46.6z M16.8,43.2c-0.4-2.4,0.1-5.8-1.4-7.1
		C15.6,38.5,14.3,43.4,16.8,43.2z M16.8,52.7c0.6-2.7-0.2-5.5-2-6.5C14.8,49.1,14.7,52,16.8,52.7z M14.7,40.8
		c-0.2-2.9,1-6.4-1.4-7.3C13,36,13.1,39.6,14.7,40.8z M12.1,45.4c1.9,0,1.2-3.2-0.6-2.8C11.5,43.7,11.3,45.1,12.1,45.4z M11.1,46.6
		c0.1,2.1,1.6,2.8,3,3.6c0.4-1.4-0.1-5.1-1.4-3.4C12,46.9,11.6,46.7,11.1,46.6z M10.7,44c0.4-1.4,0.2-3.2-1-3.6
		C9.6,42,9.7,43.5,10.7,44z M8.3,42.6c-0.2-1.5,0.6-3.9-1-4C6.7,40,6.8,42.3,8.3,42.6z M6.5,47.9c-0.4,2.1,0,4,1,5.3
		c0.6,0.8,2.3,2.3,2.6,2C10.3,51.4,9.8,48.3,6.5,47.9L6.5,47.9z M17.2,62c-1-4.6-3-8.2-6.7-10.1C11.2,56.8,13,60.6,17.2,62z
		 M17.6,50.5c-0.1,2.9,0.4,5.2,2.8,5.7C20.1,53.7,20.1,50.9,17.6,50.5z M21,64.4c-0.1-1.3-0.1-3.7-1-4.5C17.3,57.4,17.4,65,21,64.4z
		 M21,54.5c0,2.1,0.2,4.1,2.4,4v-3.2C22.4,55.2,22.3,54.2,21,54.5z M22,65.9c1.6,0,3.4,0.6,4.2-0.6c-0.1-0.9-0.2-1.8-0.6-2.4
		c-0.8-0.1-1.3,1.1-1.8,0.6C24,62.2,23.1,62,23,61C19.8,60.7,21.9,64.3,22,65.9z M27.3,68.1c-0.9-0.3-2.1-1.2-3.2-0.8
		C24,68.7,26.9,69.7,27.3,68.1z M26.5,64.7c0.1,1.8,2,3.5,3.5,4.6C32,67.1,29.2,64.1,26.5,64.7z M32.7,60.6c-1-0.2-1.4-1-2.6-1
		c-0.6,1.8-0.1,4.2,2.2,3.8C32.6,62.6,32.8,61.7,32.7,60.6L32.7,60.6z M33.5,55.2c-0.2-4.5-2.4-6.8-4.3-9.5
		C29.1,50.3,31.3,52.8,33.5,55.2z M33.8,40.4c0,4.2-0.3,8.6,2.4,10.1C36.9,46.8,36.9,41.5,33.8,40.4z M41.4,48.7
		c-1.9,0.1-2.7-1.7-4.2-1.4c-0.7,1.6,0.5,3.1,0.2,5C39.9,52.3,40.7,50.5,41.4,48.7L41.4,48.7z M182.7,42.6c1.3-0.3,0.8,1.2,2,1
		c1.7-1.2,0.2-4-1.6-4.2C182.5,40,182.7,41.4,182.7,42.6z M180.3,43h1.2c0.7-0.7,0.6-2.2,0.8-3.4c-0.6-0.3-0.7-1-1.6-1
		C180.3,39.8,179.4,41.7,180.3,43L180.3,43z M179.3,42.6c0.1-1.3,0.9-2.8-0.6-3.2C178.5,40.2,177.7,42.7,179.3,42.6z M164.5,64.2
		c1.1,0.2,1.2-0.6,2.4-0.4c1.1-3,2-9.5-1-11.1c-1.5,2.7,0.5,6.7-0.4,9.9c-1.1-1.7,0-5.7-1.4-7.1C163.3,58.3,163.9,61.6,164.5,64.2
		L164.5,64.2z M163.3,51.7c-0.4,2.2-1.9,5.9-1.6,8.7c0.1,0.7,0.8,3,1.6,2.4C163,59,163.9,55.2,163.3,51.7z M161.1,62.4
		c-0.7-4,2.7-8.3-0.2-10.9C158.8,53.5,157.6,61,161.1,62.4z M158,59.4c-0.8-3,1.2-4.2,1-7.1C155.4,52.1,155,58.7,158,59.4z
		 M148.5,47c0.1,1.7-1.2,4.2,0.4,5C149.4,50.7,149.7,47.6,148.5,47z M146.1,52.7c2.4-1.4,2.8-8,0.4-9.7
		C146.3,46.2,146.3,49.6,146.1,52.7z M142.3,52.7c-0.1-1,0.8-2,1.2-1.8c-0.4,1,0.3,2.5,1.4,2.8c0.7-2.8,2.2-8.6-0.6-10.3
		c-0.3,2.1-0.2,4.5-1.2,6c-0.1-2.2,0.2-3.9,0.4-5.8C139.8,43.1,139.4,51.3,142.3,52.7z M139.6,49.7c-0.4-2.2,1.2-4.3-0.4-5.3
		C138.8,45.9,137.9,49,139.6,49.7z M134.8,55.5c2-0.1,1.6-3.9-0.2-4C134.7,52.8,134.4,54.5,134.8,55.5z M132.8,56.5
		c-0.3-1,0.2-4.5-0.8-5.5C132,52.4,130.6,56.3,132.8,56.5z M130.9,55.9c-0.1-1.7,1.1-3,0.2-4.4h-0.8
		C129.7,52.7,129.5,55.5,130.9,55.9L130.9,55.9z M128.1,53.1c0.5,0.2,0.5,0.8,1.4,0.6c-0.4-0.9,0.1-2.6-1-2.8
		C128.2,51.5,128,52.2,128.1,53.1z M119.2,66.4c2,0.2,1.9-3.4,1-4.3c-0.3,0.1-1-0.2-1,0.2C119.5,63.2,119,64.9,119.2,66.4
		L119.2,66.4z M118.4,64.6c-0.1-1.6,0.7-3.3-0.2-4.4h-0.6C117.7,61.9,116.8,64.1,118.4,64.6z M113.7,69.5c2.5,0.5,1.5-2.5,2.6-3.4
		c0,1,0.2,1.8,1,2c0.3-1.6,0.4-4.2-1-4.7c0,0.9,0.2,2-0.8,2c0.4-2.1-0.2-4.7-1.4-6C113.9,62.8,113.8,66.2,113.7,69.5L113.7,69.5z
		 M111.9,69.9c0.4-2.3,1.6-7.5-1.4-7.9C109.9,64.5,109.1,69.2,111.9,69.9z M92.1,55.5c0.7-0.2,1.2-0.4,1.8-0.6
		c-0.2-1.8,0.6-2.5,0.4-4.3c-0.9,0-1.5,0.4-2.4,0.6C91.7,52.8,90.8,54.4,92.1,55.5L92.1,55.5z M50.3,75.3c1.8,0.7,2.4,3.8,4,4.2
		C53.1,77.8,52.7,75.6,50.3,75.3z M55.1,84.6c-0.5-4.1-2.3-6.9-5.3-8.5c0.3,1.1-0.8,0.9-0.8,1.8c2.9,1.5,0.4,8.4,3.2,10.1
		c0.3-2.3-1.2-5.5,1.4-5.7C54.4,82.6,53.9,84.4,55.1,84.6z M59,96c-1.1-1.4-1.2-3.7-1.8-5.5c-1-0.1-2.2,0.1-3-0.2
		C55.2,92.8,56.9,95.5,59,96z M82,126.5c-1.2-0.6-1.2-2.3-2.4-3c-0.1,1-1.4,1.2-2,0.6C77.6,125.5,80.2,127,82,126.5L82,126.5z
		 M245.7,67.5c-6.7-0.1-7-6.7-7.9-12.7c1.1-2.3,4.8-2,5.4-4.7c-2.9-3.8-9.8-3.6-13.9-6.1c-3.7,3.8-10.6,4.3-10.1,12.3
		c-1.1,1.2-3.1,1.5-5,1.2c-1.1-0.2-2.2-0.6-2.9-1.1c-1.3-6.3-6.8-11-13.5-11c-7.6,0-13.8,6.2-13.8,13.8s6.2,13.8,13.8,13.8
		c3.1,0,5.9-1,8.2-2.8c1.3,0.1,2.6,0.1,3.8,0.3c0.7,0.1,1.4,0.3,2,0.5c0.7,5.6-2.9,8.4-7.7,9.1c-3.5,3.5-3.3,10.7-4.8,16.2
		c-4.6,0.7-3.8,6.3-10.1,5.2c-6.4-1.2-3.9-11-9.7-13.9c-2.5,1.6-2.9,7.7-7.9,6.9c-0.7-0.1-1.4-0.9-2.4-1.2c-2.5-0.8-6.1-0.4-6.7-2.4
		c-1-3.1,1.6-8.1,4.2-8.9c4.3-1.3,5.4,3.8,9.5,3c0.3-0.7,0.5-1.6,0.8-2.4c-2.8-2.4-6-4.4-6.6-9.1c-2.6,0.6-2.8,3.3-4.1,4.9
		c-4.4,5.7-12.4,7.9-22.6,8.1c-1.7,4.4-8.2,2.2-11.7,0.8c-1-3.1-0.8-7.6-0.8-11.7c0.5-0.3,0.1-1.5,0.2-2.2c-0.1-4.1-0.3-8.1-3-9.7
		c-2.7,6-1.8,14-3.8,19.8c-0.7,1.9-2.2,3.3-2.8,5.1c-0.7,2.3-0.6,4.5-1.2,6.3c-1.8,5.7-5,9.7-9.5,13.1c-1.1-1.1-3.2-1.1-4-2.4
		c-0.4-0.7,1.2-1.1,0.2-1.2c-2.9-0.5-4.6-1.4-6.5-3c-2-1.6-3-4-4.6-4.9c-1.7-1.1-3.2,1.5-5.7,1c0.1-0.5,0.6-1.2,0.2-1.6
		c-1.3,0-3-0.3-4.6-0.6c-1.2-2.5-2.8-4.6-2.4-8.3c1.1-9.6,15.2-11.4,15.2-22.8c-3.7,3.3-9,6.7-15.1,8.3c1.3,0.2,2.6,0.3,3,1.4
		c-1.2,3.2-5,3.8-8.7,4.6c-1.1,3.3-4.2,4.7-6.1,7.3c2,0.7,4.4,1.2,7.1,0.8c0.5,1.4,1.2,2.5,1.2,4.3v2.2c-0.4,4.2-3.3,10.5-7.7,10.1
		c-2.5-0.2-3.5-3.1-4.2-5.7c-4.3-0.3-4.1-7.2-2.6-10.5c-1.7-0.4-3.6-0.8-5.5-1c-2.5,3.6,1.8,8.4-0.2,12.1c0.6,0.5,1.9,2.2,2.2,1.6
		c0.1-1.5-0.4-3.7,0.8-4.2c1.9,1.5,1.6,5.3,1.8,8.5c0.1,1.7,0.5,3.8,1.1,4.9c0.3,0.6,0.7,0.9,1.1,0.8c-0.2-2.5-2.4-7.6,1.8-7.3
		c0.9,1.5-0.5,3.7,0.4,5.3c0.4,0.4,1.6-0.4,2.2,0.2c-0.1,1.9-0.4,3.7,0.6,4.9c-0.1-0.8,1.2-0.2,1.6-0.2c1.1,2.1,0.9,5.6,2.4,7.3
		c0.2-1.1-1-2.3,0-3c1.7-0.9,1.8,1.4,2.6,2c0.1-0.9,1.1-0.8,2.2-0.8c1,2.1,0.6,5.6,2.8,6.5c0.1-1-0.9-2.3,0-2.9
		c3.1,1.9,4,6.1,4.8,10.5c8.8,4.2,15.1,10.9,24.5,14.4c1.3,3.4,4.3,5,8.7,5.3c-2.9-3.6-9.8-7.1-8.3-14.4c2.4,0.2,1.4,4.9,3.4,4.9
		c-0.5-0.7,0.4-1.7,1.4-1.6c0.8,1.4,1.4,2.9,1.6,4.9c3.1,0.2,4.9,5,2.6,7.1c1.8,0,2.5,2,4.6,1.2c-0.1-1.8-3.2-2.5-1.8-4.6
		c1.7,0,4.2,2,3.4,4.6c4.3,0.2,8,2,12.3,1.6c-1.8-0.6-4.8-1-3.9-3.6c1.9-0.9,2.4,2.2,4.2,1.4c-0.8-1.2-1.6-3.5,0-3.8
		c1.8-0.3,1.8,2.8,2.8,4.2c4,1.2,7.3,3,12.1,3.4c0.2,0.4,1.7,0.4,1.9,0h0c0.4-0.1,1.2,0.3,1.2-0.2c-3.1-0.4-6.7-0.2-7.9-2.6
		c4.9-2.2,9.4,1.3,14.1,1.8c0.9-0.1,0.3-1.7,1.2-1.8c12.6,4,22.5-3.3,33.8-4.3c0.8-1.5,2.3-2.5,4.6-2.6c3.6-5.2,9-7.9,11.3-13.7
		c0.6-1.4,0.5-2.9,1.2-4.8c1.1-2.9,5.1-4.9,4.8-8.9c6.2-5.9,8.2-15.9,10.9-25.1c0.9-3.1,2.4-5.9,3.2-8.9c0.3-1.2,0.1-2.5,0.4-3.7
		c0.6-2.5,1.8-4.4,3.1-6.1C241.7,73.7,244.4,71.3,245.7,67.5L245.7,67.5z M174,116.4c0.7,0.9,0.3,2.8-0.8,3.2
		c-0.4-0.5-0.1-1.8-1-1.8c-0.9,1.2,1.3,2.9-0.2,3.6c-2.6-1.5-3.1-7.6-1.2-10.3c-0.6-0.9-1.6-1.8-3.2-1.2c-0.3-2.5-1.8-3.7-3.6-4.8
		c0,0.8,0.7,2.2-0.6,2.2c-1.9-3.2,2.4-5.6,0.2-8.9c-1.6-0.1-0.4,2.7-1.8,2.8c-0.9-1.6,0.4-2.8,0.2-4.7c-8.3,2.2-11.7,9.3-15.8,15.6
		c1.9,0.3,1.5,2.2,1.8,3.7c1.2,6.7,6.3,10.4,11.5,13.5c5.7-0.6,11.5,3.9,15-0.4c0.2-0.7-0.7-0.3-0.6-1c2.3-5.2,4.2-12.5,3.4-19.6
		C176.1,110.8,177,115.6,174,116.4L174,116.4z M167.3,123.8c0.2-1.9,1.2-3.1,1.8-4.6c1.4,0.3,1.1,2.4,1.8,3.4
		C170.2,123.5,168.9,124.4,167.3,123.8L167.3,123.8z M167.7,117.8c1.2,1.1,0,3.3-1,3.9C165.4,120.2,167.6,119.3,167.7,117.8z
		 M165.9,107.7c1.3,0.7,1.8,3.1,1.4,4.8C166,111.7,165.5,109.5,165.9,107.7z M164.5,110.5c1.7,0.6,2,2.5,2,4.8
		C164.3,115.2,164,112.6,164.5,110.5z M162.3,116.7c-0.1-1.5,0.9-1.9,1-3.2c1.6,0.3,0.9,3,0,3.6
		C162.8,117.1,162.7,116.7,162.3,116.7L162.3,116.7z M162.5,106c0.4,1.7,0.9,4.5-1.4,4.5C160.5,109.4,159.9,105.5,162.5,106z
		 M160.7,119.6c-0.4-0.9,0.1-1.9,0.6-2.6c1,0.2,1.1,2.4,0.2,2.8C161.3,119.6,161.1,119.6,160.7,119.6L160.7,119.6z M158.4,121.4
		c-0.1-2.1,3.1-2,2.4,0.6C159.6,122.4,159,121.9,158.4,121.4z M158.9,109.5c1.9-0.3,1.4,2.5,1,3.6
		C158.6,113,158.5,110.7,158.9,109.5z M157.6,111.3c1,0.6,1.4,2.4,1,3.9C156.7,115.1,157.2,112.7,157.6,111.3z M157.8,101
		c0.3-0.1,0.4,0.2,0.6,0.2c0.4,0.5,0.1,1.7,0.2,2.6C157.1,103.9,156.8,101.7,157.8,101L157.8,101z M157,103.2
		c0.1,0.8-0.4,2.6-0.6,3.8C154.7,106.6,154.7,102.9,157,103.2z M154.2,106.4c2.2,0.6,0.1,4.2-1.6,2.6
		C152.5,107.4,153.8,107.3,154.2,106.4z M151.4,111.7c0.4,0.3,1,0.5,1.8,0.4c0.1,0.7-0.1,1.1-0.4,1.4
		C151.5,113.7,151.1,112.6,151.4,111.7L151.4,111.7z M151.4,114.3c1.2,0.1,1.7,1.5,1,2.4C151.3,116.7,151.4,115.4,151.4,114.3z
		 M103.3,24.4c-2.6-1.6-4.3-4.9-6.3-7.5c-2.1-2.8-4.3-5.5-6.7-7.7c-2.6,0.1-4.7-0.2-5.5-1.8c0.5,0,1.2,0.1,1.2-0.4
		c-0.8-0.5-2.2-0.3-2.4-1.4c0.4,0,0.7-0.1,0.8-0.4c-6.6,0.3-13.5,0.3-13.1,7.5c-2.1,3-4.7,6.2-3.9,11.5c2.2,0.6,2.9,2.6,3.2,4.9v2
		c3.3,4.4,6.6,8.7,11.1,11.9c0,0.3-0.5,0.2-0.4,0.6c2.2,1,8.1,2.6,8.7-1c-4.6-0.5-10.3-3.4-7.5-8.7c3,1.7,3.2,6.2,7.9,6.1
		c-0.4-2.4-3.8-3.8-2.4-6.7c1.7,0.3,1.5,2.5,2.4,3.6c0-0.5,0.3-0.6,0.6-0.8c0.9,0.6,1.4,1.6,2.8,1.8c-0.6-2.2-3.4-5.7-0.8-7.5
		c2,1.7,4.5,4,7.1,4.5c-1-2.1-2-4.1-2.2-7h-0.2c0,0.9-0.1,1.8-0.4,2.4c-1,0-2.3,0.2-2.6-0.6v-1.2c0.8-0.2,0.9,0.4,1.6,0.4
		c-0.4-1.4-2.1-1.5-2.6-2.8c0.1-2.5,0.3-4.5-0.2-6.7c-1.9,0.6-0.4,4.8-1.2,5.9c-1.1-2.6-1.6-6.7-0.8-10.1c3.3,2.3,5.6,5.7,6.3,10.7
		c-0.1-1.3,0.4-2.1,0.8-3c2,2.1,3.9,4.2,6.7,5.6c0.5-2.8-0.8-5.2-2.8-6.1C102.4,23.4,104,23.7,103.3,24.4L103.3,24.4z M90.2,27.6
		c1.8,0.5,0.7,3.2,0.8,5C89.4,31.8,90.5,29.6,90.2,27.6z M89.8,19.9c1.3,0.4,0.7,2.6,0.8,4.2C89.5,23.5,89.9,21.4,89.8,19.9z
		 M89.3,13.5c0.8-0.2,0.8,0.4,1.4,0.4c-0.1,1.5,0.3,3.3-1,3.6C88.8,16.9,89.5,14.7,89.3,13.5z M86.7,22.5c2.5,1.2,3.2,4.4,2.8,7.9
		C87.2,29.2,86,25.9,86.7,22.5z M85.9,12.2c1-0.2,1.2-0.2,2.2,0c-0.9,1.8,0.2,3.6,0.4,5.3C86.1,17.2,86.5,14.2,85.9,12.2L85.9,12.2z
		 M84.5,32.1v-1.4c1.2,0,1.8,0.6,1.8,1.8C85.4,32.7,84.9,32.5,84.5,32.1L84.5,32.1z M84.1,19.7c0.2,0,0.3,0.1,0.4,0.2
		c2,0.4,1.2,3.4,1.4,5.6C83.4,25.4,84.3,22,84.1,19.7L84.1,19.7z M84.7,11.8c0,0.9,0.3,2.2,0.4,3.6C83.7,15.2,83.9,12.4,84.7,11.8z
		 M81.7,28c1.1-0.7,2.3,1.2,1.6,2.4C82.2,30.2,82,29,81.7,28z M81.7,17.1c2.3,0.2,1.4,3.4,1.6,5.7C81.2,22.6,81,19.1,81.7,17.1z
		 M77,29.4c1.1,1.2,2.5,2.1,4.2,2.8c0.4,1.4-0.2,2.6,0,4.4C78.1,35.9,76.2,33.2,77,29.4z M79.9,15.9c1.2,0.4,1.3,2.8,1,4
		C79.1,20,79.5,17.1,79.9,15.9z M78.8,25c1.6,0,2.4,1.6,2,3C79.2,28,78.2,26.5,78.8,25z M74.8,21.1c2.4,0.6,3.5,2.4,3.2,5.7
		C76,26,73.6,23.9,74.8,21.1z M82.7,141.8c-0.8-0.1-0.2,1.1-0.4,1.6c-0.2,1.4,0.4,3.5-0.6,3.9c-1.5-1.6-1.5-4.7-2.2-7.1
		c-1.6-0.3-1.3,1.4-2.8,1.4c-1.5-2.9-0.7-8.1-3.8-9.5c-0.1,0.6,0.2,1.6-0.4,1.6c-0.7-3.2-1.7-6.2-3.6-8.3c-0.5,2.3,1.3,4.2,0,5.5
		c-0.4-1.8-2.3-5.4-0.4-6.9c1.3,0,1.3,1.3,2.2,1.8c0.2-4.7-3.3-5.5-6.3-6.9c-0.5,0.8,0.2,1.3,0.2,2.2c-13.8,4.7-13.3,33.2-4.3,43
		c0.7,0.6,1.4,1.2,2,2c1,0.4-0.7,0.5,0,1c2,0.2,4.4,0.4,6.1-0.2c-0.5,0-1.2,0.1-1.2-0.4c5-2.5,8.7-6.2,12.9-9.5
		c0,0.4,0.2,0.5,0.4,0.6c0.1-1.1-0.3-2.6,0.2-3.4c0.5-0.2,1.4-0.6,2-0.2c0.2-3.4,0.2-6.9,2.6-8.1c0.1-1.6,0.5-3.2-0.4-4.2
		C84.2,141.7,83.4,142.1,82.7,141.8L82.7,141.8z M77.8,143c3,0.1,4.2,5.4,2,7.1C78.1,148.8,77.8,146,77.8,143z M76.4,145.8
		c1.9,1.5,2.9,6,1.2,8.3C75.7,152.6,75,148.2,76.4,145.8z M73,135.1h1.4c0,3.1,2.5,5,1.4,7.9C73.4,141.8,73.9,137.8,73,135.1z
		 M72.2,159.8c-1.3-0.5-0.9-2.8-1-4.6c0.9-0.1,0.4,1.3,1.2,1.4c-0.8-2.4-0.3-6.8,1.6-8.3c1.8,1.7,2,5,2.2,8.3
		C74.7,157.6,73.7,158.9,72.2,159.8L72.2,159.8z M73,140.8c0.9,0.4,1.1,1.6,1,3C72.8,143.6,73,142.1,73,140.8z M71.1,140
		c1.8,0.9,2.9,6.6,0.2,7.3C71.3,144.9,69.6,142.1,71.1,140z M69.5,133.3c1.3,0.2,1.7,1.9,1.4,3.2C68.7,137.1,68.8,134.3,69.5,133.3z
		 M69.5,154.9c2.4,1.6,1.8,8.6-2.6,6.7C66.9,158.5,68.5,157,69.5,154.9z M68.7,143c1.4,1.3,0.9,4.4,1,6.9
		C68.3,148.7,68.8,145.5,68.7,143z M67.7,134.3h0.6c0.6,0.5,0.5,2.5,0,3C66.8,137.4,67.2,134.9,67.7,134.3z M66.3,143
		c2,1.7,4.2,10-0.8,10.1C65.9,150,64.1,145.2,66.3,143z M65.1,135.9c0.9,0.4,1.3,2.2,0.6,3.2C64.5,138.7,65,137.1,65.1,135.9z
		 M63.3,146.6c1.5,1.4,1.8,4.8,1.4,7.5C62.4,153.4,62.7,148.9,63.3,146.6z M60,133.5c-0.2-2.2,2.3-2.6,4-2.4
		c0.2,2.1-0.6,3.3-2.4,3.6C61.8,133,60.5,133.5,60,133.5z M63.9,125c0.1,2.1-1,2.9-3.2,2.8C61.2,126.3,62.3,125.3,63.9,125z
		 M63.3,136.9c1,1.6,0.1,4.3-0.8,5.3C60.6,141.3,60.8,137,63.3,136.9z M215.7,65.8c-0.2,1.4,0.4,1.9,0.8,2.8
		c2.6,0.1,3.8-1.2,3.6-3.9C218.2,64.5,217.2,65.4,215.7,65.8L215.7,65.8z M216.5,98.6v-2.8c-6.2-3.3-7.9,5.2-7.5,11.5
		c1.7,1.2,3.9,2.7,6.3,2.2c2.6-0.6,5.1-5.9,3.8-8.7C218.5,99.7,217.4,99.6,216.5,98.6L216.5,98.6z M179.9,103.8
		c2.3,1.5,5.8,0,5.3-3.2C183.3,98.6,179.1,100.2,179.9,103.8z M153.2,91.5c0.3-4.3-7.1-4.7-7.5-0.8C147.4,92.1,151,92.8,153.2,91.5z
		 M125.3,92.7c-0.6,5.2-1.1,10.6-1.6,16c2.5,1.3,5.1,2.4,8.7,2.6c4-4.1,8.3-9.7,6.7-18C134.8,92.9,130.2,92.6,125.3,92.7L125.3,92.7
		z M136.8,152.5c0.6-2-0.8-3.6-2.8-3.8C132.2,150.4,134.5,153.5,136.8,152.5z M133,120c-4.2-2.1-13.2-3.4-12.5,3.2
		c0.6,5.2,10.4,8.5,13.7,3.2v-2.2C134.2,122.4,133.5,121.4,133,120L133,120z M129.6,148.9c-0.2,2.8,0.9,5.2,3.8,4.3
		C132.8,151.3,132,148.5,129.6,148.9z M109.7,117.5c3.3,1.7,11.9,1.6,10.5-3.8C119.1,109.5,107.9,110.9,109.7,117.5z M107.9,132.9
		h-0.8c-0.5,5.4,1.3,10.2,5.1,11.9c0.1-2.5-1.2-4.3-2-6.2C109.4,136.7,108.9,134.8,107.9,132.9L107.9,132.9z M100.6,131.3
		c0-0.1-0.1-0.2-0.2-0.2c0.1,0.8-0.1,1.5,0,2.2c0.4,3.9,3,8.3,5.9,8.7c-0.1-1.2-1-2.5-1.6-4.2C103.7,135.1,102.9,132.1,100.6,131.3
		L100.6,131.3z M92.4,101.6c-8.4,8.1,4.4,23.5,12.3,15.4v-7.5C101.5,106,98.2,102.6,92.4,101.6z M99.6,136.5c0.4-3.9-2-9.5-4.9-8.1
		C96,131.3,96.5,135.2,99.6,136.5z M92.4,131.5c1.7-1.2,0.7-5.2-1.8-4.8C90.1,128.7,90.7,131.2,92.4,131.5z"/>
</g>
<g>
	<path class="st1" d="M315.4,163.6l-17-1.1c1.2-13.7,2-36.5,2.2-68.6c0.2-32,1.1-54.4,2.4-67.1c4.2,0.4,15.4,0.7,33.6,0.9
		c18.2,0.3,30.1,0.8,35.7,1.7l2,8.4c-5.6,1-16.8,2.2-33.5,3.5c-16.8,1.4-25.6,2.1-26.5,2.2c0.1,2.9,0.4,8.7,0.8,17.5
		c0.4,8.8,0.7,16.1,0.8,21.8c4.2,0.5,11.9,1.2,23.1,2.1s18.3,1.5,21.2,1.8l1.9,8.6c-26.2,2.4-41.5,3.6-46,3.7v3.2
		c0,4.7-0.2,14.5-0.5,29.3c-0.3,14.8-0.5,24.6-0.5,29.2V163.6z"/>
	<path class="st1" d="M429,68.9l8.9,1.7v1.9c0,8.4,0.5,22.7,1.6,42.9c1.1,20.1,2,35.6,2.9,46.6c-2.5,1-4.8,1.5-7.1,1.5
		c-2,0-4.2-0.3-6.7-0.9l-1.5-4.8c-8,4.5-15.5,6.7-22.7,6.7c-5.3,0-10-1.2-13.9-3.7c-3.9-2.5-6.9-5.6-9-9.2c-2.1-3.7-3.8-8.2-5-13.6
		c-1.2-5.4-2-10.3-2.3-14.7c-0.3-4.4-0.5-9.3-0.5-14.8c0-15.9,1-30.5,3-43.8l8.4,1.9c0.9,4.1,1.3,8.6,1.3,13.4
		c0,2.7-0.2,7.5-0.5,14.2c-0.3,6.7-0.5,11.8-0.5,15.3c0,6.1,0.3,11.3,0.8,15.7c0.6,4.4,1.6,8.7,3.2,12.9c1.6,4.2,3.9,7.4,7.2,9.6
		c3.2,2.2,7.3,3.4,12.1,3.4c5.5,0,11.4-1.2,17.7-3.7c0.2-4.6,0.5-16.4,0.7-35.3C427.4,92.8,428,78.5,429,68.9z"/>
	<path class="st1" d="M514.4,66.3l8.4-1.9c0,3.7,0.1,6.6,0.2,8.8c0.7,27.2,1.1,44.9,1.1,53.1c0,2.9,0.1,7.3,0.2,13.4
		c0.1,6.1,0.2,10.7,0.2,13.8c0,6.8-0.2,12.7-0.7,17.7c-0.4,5-1.4,10.2-2.9,15.6c-1.5,5.4-3.5,9.8-6.1,13.2
		c-2.5,3.4-6.1,6.2-10.8,8.5c-4.7,2.2-10.2,3.4-16.5,3.4c-5.5,0-15.1-0.8-28.9-2.4c-0.1-1.4-0.3-2.9-0.7-4.5
		c-0.3-1.6-0.5-2.9-0.5-3.7c0-1.9,0.2-3.4,0.6-4.5c1,0.1,4.9,0.6,11.6,1.5c6.8,0.9,11.8,1.3,15,1.3c8.6,0,15.2-2.6,19.7-7.8
		c4.6-5.2,7-15,7.1-29.3c-6.1,3.5-12.5,5.2-19.2,5.2c-5.6,0-10.5-1.2-14.7-3.4c-4.2-2.3-7.6-5.2-10.1-8.8c-2.5-3.5-4.5-7.8-6.1-12.9
		c-1.6-5-2.6-9.9-3.2-14.6c-0.6-4.7-0.8-9.7-0.8-15.1c0-13.4,2.9-24.7,8.8-33.7c5.9-9.1,14.9-13.6,26.9-13.6c7.1,0,14,2.2,20.9,6.5
		C514.3,70.9,514.4,68.9,514.4,66.3z M512.1,144.4l0.6-60c-0.7-2.2-3.1-4-7-5.3s-8.2-2-12.9-2c-6.7,0-11.9,3.1-15.7,9.2
		s-5.6,13.6-5.6,22.4c0,4.6,0.2,9.1,0.7,13.5c0.5,4.4,1.5,9.2,3,14.5c1.5,5.3,3.9,9.5,7.3,12.7c3.4,3.2,7.5,4.8,12.5,4.8
		c3.7,0,7.1-0.9,10.2-2.7C508.3,149.8,510.6,147.4,512.1,144.4z"/>
	<path class="st1" d="M595,68.9l8.9,1.7v1.9c0,8.4,0.5,22.7,1.6,42.9c1.1,20.1,2,35.6,2.9,46.6c-2.5,1-4.8,1.5-7.1,1.5
		c-2,0-4.2-0.3-6.7-0.9l-1.5-4.8c-8,4.5-15.5,6.7-22.7,6.7c-5.3,0-10-1.2-13.9-3.7c-3.9-2.5-6.9-5.6-9-9.2c-2.1-3.7-3.8-8.2-5-13.6
		c-1.2-5.4-2-10.3-2.3-14.7c-0.3-4.4-0.5-9.3-0.5-14.8c0-15.9,1-30.5,3-43.8l8.4,1.9c0.9,4.1,1.3,8.6,1.3,13.4
		c0,2.7-0.2,7.5-0.5,14.2c-0.3,6.7-0.5,11.8-0.5,15.3c0,6.1,0.3,11.3,0.8,15.7c0.6,4.4,1.6,8.7,3.2,12.9c1.6,4.2,3.9,7.4,7.2,9.6
		c3.2,2.2,7.3,3.4,12.1,3.4c5.5,0,11.4-1.2,17.7-3.7c0.2-4.6,0.5-16.4,0.7-35.3C593.4,92.8,594,78.5,595,68.9z"/>
	<path class="st1" d="M678.2,28.9l11.3,1.1c1.9,19,3.7,58.1,5.4,117.4c8.3-0.5,18.8-0.7,31.6-0.7c12.8,0,23-0.2,30.7-0.6
		c0.7,2.1,1.3,5.1,1.6,8.9c0.3,3.9,0.7,6.7,1,8.6c-16.3-1-37-1.5-62.2-1.5h-20.7c0.6-18.4,1-43,1-73.8
		C677.9,57.5,678,37.7,678.2,28.9z"/>
	<path class="st1" d="M774.1,33.3c3.4,0,6.1,1.5,8.4,4.4c2.2,2.9,3.4,6.2,3.4,10c0,2.7-0.7,4.9-2,6.6c-1.3,1.7-3.1,2.5-5.3,2.5
		c-3.5,0-6.2-1.4-8.2-4.3c-2-2.9-3-6.2-3-10.1c0-2.7,0.6-4.9,1.8-6.6C770.3,34.2,772,33.3,774.1,33.3z M771.5,66.7l8.6,1.9
		c1,10.2,1.9,26.2,2.6,48s1.2,35.3,1.5,40.5c-1.1,3.9-3.3,5.8-6.5,5.8c-2.2,0-4.4-0.9-6.4-2.7c-2-1.8-3.3-4-3.8-6.6
		c0.2-5.1,0.7-18.4,1.5-39.8S770.5,76.6,771.5,66.7z"/>
	<path class="st1" d="M849.4,81l1.7,8.6c-2.6,0.4-7,0.8-13,1.3c-6.1,0.5-10.6,1-13.6,1.5c0,31.9,0.4,55.1,1.1,69.5
		c-1.5,4.8-4,7.3-7.5,7.3c-1.6,0-3.2-0.7-4.6-2c-1.4-1.4-2.4-3.1-2.9-5.2c0-3.7,0.2-13.8,0.7-30.4c0.4-16.5,0.7-29.3,0.7-38.4
		l-14.2-0.6c-0.2-2.5-0.4-6.6-0.4-12.5c1.2,0.3,3.6,0.6,7.1,0.9c3.5,0.4,5.8,0.6,7.1,0.7c0.4-4,0.6-9.6,0.6-17
		c0-14.2,1.2-23.8,3.6-29.1c2.4-5.2,8-7.8,17-7.8c9.6,0,17.5,1.8,23.6,5.4l-1.1,6.7c-1.6,0-4.1-0.2-7.5-0.5c-3.4-0.3-6-0.5-7.7-0.5
		c-5.1,0-8.9,1.1-11.6,3.4c-2.6,2.2-3.9,6.5-3.9,12.9c0,2,0,4.1,0.1,6.4c0.1,2.3,0.1,3.8,0.1,4.4c0,4.6-0.1,9.6-0.2,15.1
		c2,0,4.8,0.1,8.3,0.2c3.5,0.1,6.1,0.2,7.7,0.2C843.3,81.6,846.4,81.4,849.4,81z"/>
	<path class="st1" d="M938.4,144.4l1.9,8.2c-5.5,2-13.6,4.2-24.3,6.6c-10.7,2.4-18.7,3.6-23.9,3.6c-5.3,0-10-1.8-14-5.3
		c-4-3.5-7-8.1-8.9-13.6c-2-5.5-3.4-11-4.4-16.4s-1.4-10.7-1.4-15.9c0-31,14-46.6,42.1-46.6c6.7,0,12.6,2.1,17.7,6.4
		c5.1,4.3,7.6,9.8,7.6,16.7c0,3.7-1,7-3.1,9.9c-2,2.9-4.5,5.1-7.5,6.8c-2.9,1.7-6.6,3.2-11.2,4.6c-4.5,1.4-8.5,2.4-12,3
		c-3.5,0.6-7.6,1.3-12.5,2s-8.2,1.3-10.1,1.7c0.1,3.6,0.3,6.8,0.7,9.5c0.3,2.7,0.9,5.7,1.9,8.9c0.9,3.2,2.2,5.8,3.7,7.8
		c1.6,2,3.7,3.8,6.4,5.1c2.7,1.4,6,2.1,9.7,2.1c4.5,0,9.9-0.4,16.4-1.2c6.5-0.8,12.2-1.6,17.2-2.5
		C935.5,144.8,938.2,144.4,938.4,144.4z M875.3,104.5c16.9-4.8,30.7-9.9,41.5-15.3c-0.9-4.1-2-7.1-3.5-8.9c-1.5-1.9-3.7-2.8-6.7-2.8
		c-7.6,0-14.4,2.6-20.6,7.8S876.2,96.9,875.3,104.5z"/>
</g>
</svg>
