<?xml version="1.0" encoding="UTF-8"?>
<svg id="Layer_1" data-name="Layer 1" xmlns="http://www.w3.org/2000/svg" viewBox="0 0 250 250">
  <defs>
    <style>
      .cls-1 {
        fill: #fff;
      }

      .cls-2 {
        fill: #f5c684;
      }

      .cls-3 {
        fill: #56a7dc;
      }
    </style>
  </defs>
  <g id="fugu_1" data-name="fugu 1">
    <path class="cls-2" d="m247.95,62.39c-.02.74-.37,1.39-.93,1.81-1.25.95-2.21,3.11-3.21,4.34-1.49,1.84-2.76,3.79-3.86,5.88-2.28,4.41-2.42,9.78-4.39,14.36-1.56,3.6-2.56,7.39-3.53,11.17-.93,3.72-2.6,7.18-4.3,10.62-1.09,2.16-2.51,4.23-3.51,6.41-.95,2-1.6,3.67-3,5.46-.42.53-.84,1.07-1.18,1.6-.91,1.39-1.39,2.88-1.93,4.48-.72,2.11-1.53,4.53-3.41,6.78-.46.58-.93,1.14-1.37,1.72-2.02,2.51-4.11,5.11-7.06,7.08-4.27,2.81-8.34,4.04-13.5,5.06-1.88.39-3.72.95-5.67,1.58-2.93.91-5.92,1.86-9.18,2.11-1.32.09-2.6.09-3.86.07-1.3,0-2.53-.02-3.72.09-1.79.19-3.48.56-5.11.91-2.28.49-4.6,1-7.2,1-1.16,0-2.37-.09-3.67-.35-5.64-1.05-11.27-1.86-16.7-2.37-1.25-.12-2.65-.19-4.13-.26-6.92-.37-15.54-.79-20.28-6.36-1.49-1.74-3.14-2.56-5.25-3.6-.95-.49-1.9-.95-2.93-1.56-2.53-1.46-4.95-3.14-7.29-4.74-1.46-1-2.93-2-4.39-2.95-1.86-1.18-3.81-2.25-5.88-3.39-5.78-3.18-11.78-6.48-15.49-12.54-1-1.65-1.97-3.32-2.95-4.99-1.44-2.42-2.93-4.92-4.46-7.34-.3-.46-.63-.98-.98-1.49-1.11-1.67-2.21-3.37-3.14-5.16-.44-.88-.91-1.81-1.21-2.76-.26-.88-.05-1.84.07-2.74.3-2.62-.16-5.34-1.32-7.71-.3-.65-.51-1-.51-1.74,0-.53.02-1.07.14-1.58.12-.67.37-1.28.84-1.79.6-.65,1.44-.98,2.3-.86,1.97.21,3.9.56,5.88,1.05.67.16,1.23.63,1.51,1.25.3.63.3,1.35.02,2-.86,1.81-1.16,5.09-.26,6.62.26.44.51.53.86.56,1,.07,1.86.77,2.11,1.74.51,1.93,1.16,3.93,2.11,4,1.12.09,1.93-.19,2.58-.93,2-2.35,2.02-7.87,1.77-10.89-1.93.02-3.93-.35-5.95-1.09-.7-.26-1.21-.81-1.44-1.51-.21-.7-.07-1.44.35-2.04.86-1.18,1.88-2.09,2.86-3,1.32-1.18,2.46-2.21,2.95-3.69.53-1.56,1.88-1.81,5.46-2.53.79-.14,1.95-.37,2.23-.46.12-.07.23-.19.33-.3-.05-.02-.09-.07-.14-.09-1.07-.72-1.35-2.16-.65-3.23.65-.95,1.86-1.28,2.88-.84,1.77-.23,7.43-4.3,11.34-7.78.7-.63,1.67-.77,2.51-.39.84.37,1.37,1.18,1.37,2.11,0,7.11-4.67,10.99-8.78,14.43-3.25,2.69-6.06,5.04-6.48,8.59-.23,2.18.6,5.2,1.6,5.78.49.26,1.63.39,2.62.51,1.3.14,2.79.3,4.07.86,3.11,1.3,5.83,3.18,8.46,5.02,1.09.74,2.18,1.49,3.3,2.21,1.09.7,1.95,1.37,2.72,1.97,2.09,1.67,2.09,1.65,3.62.19,2.74-2.65,4.74-5.76,5.64-8.78.6-1.97,1.35-4,2.07-5.95,1.09-3,2.23-6.09,2.83-9.01.37-1.9.56-3.86.74-5.92.37-3.79.72-7.71,2.44-11.45.42-.93,1.49-1.51,2.51-1.39,2.74.37,4.6,7.36,4.62,7.43.14.93.07,2.56-.07,5.58-.16,3.02-.46,9.11.05,10.99,4.51,1.77,6.46,1.51,7.22,1.18.42-.19.67-.46.86-.93.35-.86,1.18-1.44,2.11-1.46,10.38-.23,17.19-2.6,20.79-7.22.3-.37.56-.91.84-1.44.72-1.51,1.72-3.55,4.39-4.27.77-.21,1.58,0,2.18.53.58.53.84,1.35.7,2.14-.46,2.53,3.39,6.39,6.5,9.48,2.56,2.56,4.97,4.95,6.09,7.36.3.65.6,1.46.93,2.32.88,2.23,2.32,5.99,3.93,6.43.72.21,1.72-.39,2.44-.93.95-.72,3.88-2.95,4.85-4.39.79-1.18.84-3.21.88-5.34.09-3.69.19-8.32,4.62-10.76.88-.49,1.74-.91,2.6-1.3,2.88-1.32,4.18-1.93,4.16-4.48-.44-.05-1.09-.05-1.88-.02-2.14.02-5.2.21-7.55.39-.79.14-1.6.21-2.42.21-6.48,0-11.92-4.48-13.38-10.52-.26-1.05-.39-2.14-.39-3.25,0-3.11,1.05-6.02,2.83-8.34,2.44-3.23,6.3-5.34,10.66-5.41.09-.02.19-.02.28-.02,1.42,0,2.79.21,4.09.65,1.25.37,2.42.93,3.48,1.65.12.09.23.19.37.3,1.39,1,2.62,2.21,3.55,3.62.88.95,1.77,1.81,2.76,2.49.3.16.91.37,1.6.56,1.07.33,2.37.6,3.23.65.28-5.92,5.74-11.15,11.27-12.94,4.27-1.39,14.56,3.32,16.86,6.39.49.67.67,1.46.51,2.25-.35,1.65-1.97,2.58-3.16,3.28-.14.07-.28.14-.37.21l-.23.21q-1.3,1.07-1.3,2.49c-.02,3.07,1.37,7.97,5.3,8.04,1.25.02,2.28,1.05,2.28,2.37Z"/>
    <path class="cls-1" d="m209.2,46.41c.93,1.42,1.6,3.04,1.97,4.79.19.88.28,1.81.28,2.76,0,4.51-2.16,8.53-5.51,11.01-1.7,1.28-3.67,2.16-5.83,2.56,2.35-.19,5.41-.37,7.55-.39-.02,0-.05.02-.07.05-2.76,2.09-6.18,3.32-9.9,3.32-9.15,0-16.54-7.43-16.54-16.54s7.39-16.54,16.54-16.54c7.55,0,13.91,5.11,15.87,12.03-.7-.19-1.3-.39-1.6-.56-1-.67-1.88-1.53-2.76-2.49Z"/>
    <path class="cls-3" d="m186.01,34.27c.58,2.03.98,4.62-.7,5.88-.92.69-2.16.71-3.31.63-2.05-.13-4.22-.5-5.76-1.87s-2.11-4-.68-5.48c1.22-1.26,3.24-1.2,4.96-.85,2.05.41,4.04,1.11,5.9,2.05m-29.3,11.65c-.52.22-1.03.49-1.41.9-.67.71-.9,1.73-.99,2.71-.14,1.65.09,3.43,1.16,4.69.34.4.74.73,1.14,1.06,1.5,1.23,3.01,2.45,4.53,3.66.65.51,1.34,1.04,2.15,1.16.56.09,1.14-.03,1.69-.16.86-.2,1.77-.46,2.32-1.15.42-.52.57-1.21.69-1.87.26-1.39.48-2.79.67-4.2.12-.92.22-1.86.06-2.77-.73-3.96-4.96-4.87-8.35-4.77-1.25.04-2.5.26-3.66.75Zm-10.14-9.16c-1.77-.22-3.56-.03-5.32.25-.73.12-1.46.25-2.14.55-1.16.52-2.08,1.55-2.46,2.77s-.22,2.59.43,3.68c.34.58.81,1.07,1.27,1.55,1.17,1.24,2.36,2.49,3.78,3.43.37.25.77.48,1.21.55.52.08,1.04-.06,1.53-.24,1.01-.38,1.93-.94,2.85-1.5.45-.27.91-.55,1.26-.94.72-.79.93-1.92.94-2.99,0-1.23-.21-2.46-.64-3.62-.5-1.33-1.11-3.3-2.7-3.5Zm-19.58,9.03c-.2.53-.08,1.31-.09,1.86,0,.23-.01.46.06.68.23.66,1.04.84,1.65,1.17.78.42,1.33,1.16,2.09,1.6.82.47,1.84.52,2.75.25s1.7-.84,2.34-1.54c.29-.32.55-.67.66-1.09.21-.79-.18-1.59-.47-2.35-.17-.43-.31-.88-.61-1.23-.48-.56-1.26-.75-1.99-.9-.39-.08-.81-.16-1.18-.03-.22.08-.4.23-.61.34-.63.36-1.37.36-2.07.3-.54-.04-1.28-.34-1.76-.02-.22.14-.38.35-.53.56-.05.07-.1.14-.15.22-.03.06-.06.12-.09.18Zm-15.09,9.35c-.87.38-1.65-.76-2.48-.12-.28.21-.46.52-.63.83-.57,1.02-.24,2.49-.26,3.63-.02.79-.13,1.57-.12,2.36s.17,1.6.63,2.24,1.29,1.06,2.05.87c.33-.08.63-.26.96-.35.93-.25,1.99.3,2.85-.13.36-.17.62-.49.95-.72.51-.36,1.14-.49,1.65-.83.51-.34.88-.88,1.42-1.18.39-.22.85-.3,1.24-.52.4-.23.72-.6.88-1.04.12-.35.15-.72.17-1.08.04-.69.09-1.39.13-2.08.02-.26.03-.53-.09-.76-.16-.32-.53-.47-.85-.63-.5-.25-.96-.58-1.34-.99-.36-.38-.71-.85-1.23-.91-.67-.09-1.28.55-1.94.44-.22-.04-.42-.16-.61-.27-.31-.19-.63-.38-.94-.57-.31-.19-.66-.38-1.01-.29-.43.11-.63.6-.75,1.02s-.27.91-.68,1.09Zm-20.1-10.7c-.6.2-1.08.71-1.34,1.28s-.34,1.23-.33,1.86c.01.75.22,1.52.57,2.19.06.12.13.24.24.33.13.11.3.16.46.2.69.18,1.4.37,2.1.26.29-.05.59-.63.7-.87.4-.87.73-1.79.81-2.74.05-.6.04-2.22-.59-2.59-.25-.15-.82-.02-1.11-.03-.51-.02-1.02-.06-1.51.1Zm-37.2,28c-1.11-2.29-3.26-5.68-6.3-3.89-1.32.78-2.04,2.34-2.13,3.88s.34,3.05.86,4.49c2,5.52,5.4,10.57,9.98,14.24.58.46,1.53.86,1.95.26.24-.34.13-.81,0-1.22-.53-1.73-1.06-3.46-1.59-5.18-.14-.46-.28-.92-.54-1.33-.37-.57-.96-.98-1.62-1.12,1.19-3.27.9-7.01-.62-10.13ZM25.75,17.75c-.87,1.91-1.2,4.04-2.08,5.95-.79,1.73-2.03,3.25-3.56,4.37-.57.42-1.23.8-1.94.76-.52-.03-1-.29-1.47-.51-1.04-.49-2.13-.85-3.26-1.07-.46-.09-.99-.14-1.34.17-.23.2-.32.5-.41.79-.41,1.37-.83,2.73-1.24,4.1-1.17.12-2.33.24-3.5.35-.5.05-1.06.14-1.34.55-.18.26-.19.6-.2.91-.06,1.83-.11,3.66-.17,5.49-.07,2.21-.13,4.49.63,6.57.65,1.77,1.85,3.28,3.03,4.75.69.86,1.38,1.72,2.07,2.58,1.81,2.25,3.63,4.52,5.82,6.39,3.21,2.75,7.19,4.58,11.37,5.25,1.22.19,2.53.27,3.62-.31s1.76-2.06,1.11-3.1c-.24-.39-.65-.7-.71-1.15-.12-.86.96-1.29,1.55-1.92.97-1.04.56-2.71,0-4.01-.12-.28-.25-.56-.22-.86.1-1.1,1.99-1.24,2.19-2.33.07-.36-.08-.74.01-1.09.19-.73,1.15-.85,1.9-.96,2.52-.37,4.67-2.57,4.97-5.1.05-.4.05-.82-.11-1.19-.28-.66-1-.99-1.54-1.45-1.41-1.17-1.73-3.16-2.46-4.84-.84-1.92-2.32-3.55-4.15-4.57.28-4.02.37-8.06.24-12.09-.05-1.49-.13-3.04-.83-4.37-2.15-4.1-6.58-1.1-7.96,1.93Zm44.47,101.12c-2.12-2.61-5.68-2.19-8.23-.53-2.66,1.72-4.56,4.58-5.11,7.7-.23,1.28-.24,2.58-.24,3.88,0,3.79.07,7.61,1,11.29.86,3.38,2.43,6.56,3.07,9.99.18.99.29,1.99.6,2.95.36,1.13.99,2.15,1.69,3.11.86,1.18,2.05,2.39,3.51,2.32.97-.05,1.81-.65,2.59-1.24.4-.3.8-.6,1.2-.9,3.81-2.86,7.73-5.83,10.12-9.96,1.75-3.02,2.59-6.56,2.37-10.04-.02-.25-.05-.52-.22-.7-.36-.37-.99-.09-1.49-.21-.83-.19-1.16-1.42-2.01-1.46-.21,0-.41.06-.62.08-.95.06-1.52-1.03-1.81-1.94-.48-1.54-.9-3.13-1.74-4.5-.52-.84-1.18-1.59-1.68-2.44-1.31-2.24-1.36-5.39-2.99-7.4ZM88.85,5.4c-1.03-.6-2.15-.35-3.27-.61-.42-.1-.81-.28-1.21-.41-2.15-.68-4.32-.19-6.26.83-2.51,1.33-4.43,3.6-5.74,6.12-.49.94-.9,1.92-1.07,2.97-.45,2.81.92,5.54,1.63,8.29.44,1.67.64,3.43,1.41,4.98.44.89,1.05,1.68,1.66,2.46.91,1.17,1.81,2.34,2.72,3.5.54.7,1.1,1.41,1.78,1.97.91.75,2.02,1.22,3.12,1.67,1.12.47,2.25.94,3.44,1.2.86.19,1.97.15,2.34-.65.24-.52.04-1.13-.04-1.69s.08-1.3.64-1.43c.33-.08.76.05.95-.22.15-.21.03-.49.04-.75.03-.5.58-.81,1.07-.88s1.02,0,1.49-.19c1.14-.46,1.27-2.08,2.24-2.85.99-.78,2.42-.38,3.6.05-.55-1.57.15-3.49,1.59-4.33,1.28-.75,2.96-.68,4.15-1.57.05-1.25-.64-2.42-1.51-3.33s-1.91-1.62-2.81-2.49c-1.17-1.11-2.09-2.44-3.03-3.75-1.81-2.51-3.73-5-6.18-6.89-.85-.66-1.85-1.48-2.75-2.01Zm71.1,89.83c-.62-2.02-2.72-.83-3.68.19-2.16,2.29-4.38,4.65-5.52,7.58-.96,2.47-1.1,5.25-.37,7.8.21.74.59,1.56,1.33,1.78.98.29,1.93-.71,2.1-1.71.08-.51.2-1.2.72-1.21.27,0,.49.21.67.42.9,1,1.79,2.01,2.69,3.01.1.12.21.24.22.4.01.18-.11.34-.21.49-.76,1.05-1.09,2.41-.87,3.69.06.34.16.7.42.93.24.21.57.28.89.31,1.72.13,3.48-.92,4.17-2.5.23-.52.74-1.23,1.18-.87.12.1.18.25.22.4.3,1.1.02,2.39.67,3.33.75,1.09,2.33,1.14,3.65,1.03,1.38-.11,3.02-.46,3.5-1.76.44-1.2-.39-2.45-1.11-3.5-1.17-1.72-2.18-3.61-2.44-5.67-.13-1.07-.06-2.15-.21-3.22-.18-1.36-.72-2.67-1.55-3.77-.17-.22-.36-.45-.63-.52-.46-.13-.93.27-1.07.72s-.03.95.08,1.41c-.89-.7-1.57-1.67-1.93-2.75-.13-.39-.22-.8-.49-1.11-.3-.35-.76-.5-1.14-.75-1.67-1.12-.83-2.66-1.29-4.15Z"/>
    <path d="m203.72,53.96c0,3.32-2.7,6.02-6.02,6.02s-6.02-2.7-6.02-6.02,2.7-6.02,6.02-6.02,6.02,2.7,6.02,6.02Zm46.28,6.41c.16,4.46-2.39,6.2-4.55,8.32-.88.72-1.67,1.51-2.37,2.37-.3.33-.58.65-.84,1-3.72,5.2-1.9,13.59-4.72,19.4-.74,1.53-2.37,2.56-2.97,3.95-1.56,3.65-.81,7.71-2.37,11.1-1.58,3.44-4.23,5.04-4.95,8.71-.02,1,1.58.39,1.79,1.18-5.11,15.33-16.56,24.34-25.95,35.42-2.95.07-5.39,2.35-8.5.98-8.73,4.27-20.98,5.04-34.05,4.97h-12.66c-.6.12-1.7-.26-1.97.19-3.14.37-5.44-.12-6.13-2.18-7.46.07-14.63-1.93-21-4.55-9.18-3.79-17.82-6.83-22.74-14.05-.72-.86-1.51-1.65-2.39-2.37-3.02-2.58-7.92-3.28-10.29-6.53-1.21-.28-1.88.79-2.76.19-1.05-.72-1.72-1.81-2.76-2.56-5.32-5.67-9.99-12.92-14.29-20.51-.39-.67-.77-1.37-1.16-2.07-1.3-2.32-1.65-3.86-4.55-4.16-1.63-2.86-2.49-6.48-6.74-6.71-.26-1.51-1.12-2.44-1.37-3.97-.63-.44-2.14.02-2.79-.39-3.69-5.92-8.06-11.2-12.06-16.82-3.07.33-4.58-2.93-6.95-4.16-1.56-.81-4.18-.81-6.13-1.79-2.09-1.05-2.76-3.58-5.92-2.76-1.49-1.02-1.93-3.09-3.76-3.76-.28-.88.67-.51.58-1.18C7.69,53.03,4.74,46.41,0,41.58v-2.76c1.07-8.73,4.39-13.17,11.29-15.66,2.49-.88,5.34-.93,6.92-2.95.81-.65,1.53-1.37,2.18-2.18,3.21-3.46,5.55-7.76,9.11-10.89,1.7,1,3.18,2.21,4.95,3.18,2.86,5.55,1.39,13.4,3.55,19.19,1.05,2.83,3,6.43,4.55,9.31,1.6,2.93,3.83,5.46,6.34,7.32,2.97-1.44,6.48-2.37,10.87-2.37.67-.14,1.84.23,2.18-.21h3.37c1.18.33,3.76.33,4.95,0,2.83-.02,5.18,0,7.71-.6,2.23-.51,4.04-2.02,5.74-2.37,2.09-.39,4.44.07,6.53,0,13.29-.46,25.39-5.11,38-6.74,1.05-.23.02-1.28.81-1.77,7.15-.56,14.19-1.23,21.77-1.39h8.9c3.25.07,6.34.28,9.31.6.81,0,.07-1.42.39-1.39h5.92c8.06.02,15.66,1.28,23.37,2.18,7.64.91,15.42,1.28,23.55,1.77,7.5.46,16.14,2.81,21.37,6.74,1.58,1.18,4.27,3.41,4.37,4.95.16,2.95-4.65,3.53-5.55,5.95-2.04,5.48,3.28,7.9,7.53,8.9ZM33.06,21.18c.02-2,.09-4.04-1-4.95.09,1.88-.39,4.37,1,4.95Zm-.79,7.71c-.05-3.11.26-6.57-1-8.5-.35,2.81-.3,6.74,1,8.5Zm-3.55-8.11c.09-1.25.6-3.14-.6-3.55-.72.93-.49,3.25.6,3.55Zm3.16,17.82c.28-6.48-1.21-11.2-2.97-15.63-.88,2.95,1.9,6.6-.19,8.9-.44-4.18-.05-9.2-2-11.87-.81,7.99.6,15.33,5.16,18.61Zm-4.16,1.97c.58-1.79-.19-3.88-1.39-4.55,0,2-.16,4.13,1.39,4.55Zm.79,9.31c.3-1.46-.42-3.53-1.97-3.76-1.25,1.39-.14,3.93,1.97,3.76Zm-2.18,1.97v2.97c.98.49,1.46,1.44,2.79,1.58.77-2.49-.67-4.3-2.79-4.55Zm-.79-.79h-1.37c.07,1.56-.49,3.76,1.37,3.55.98-.93-.33-2.04,0-3.55Zm-1.77-9.31c-.67,1.9-.74,5.46,1.37,5.74.56-2.18,0-4.81-1.37-5.74Zm.98-6.53c-.12-2.53.49-5.76-1.39-6.53-.42,2.35-.77,5.78,1.39,6.53Zm-2.18,10.5c.63-3.51.67-8.15-1.97-9.5-.33,3.65-.98,8.22,1.97,9.5Zm-3.16-4.37c.58-3.76-.07-7.97-1.79-10.08-.86,3.35-1.09,8.83,1.79,10.08Zm-2.58-3.37c-.42-2.39.14-5.78-1.37-7.11.12,2.44-1.16,7.34,1.37,7.11Zm0,9.5c.58-2.67-.23-5.51-1.97-6.53-.09,2.93-.19,5.88,1.97,6.53Zm-2.16-11.87c-.23-2.93,1-6.36-1.39-7.32-.3,2.46-.21,6.11,1.39,7.32Zm-2.58,4.55c1.88-.02,1.25-3.16-.6-2.76.02,1.09-.19,2.44.6,2.76Zm-1,1.18c.05,2.14,1.56,2.81,2.97,3.58.44-1.42-.07-5.06-1.39-3.37-.67.09-1.09-.09-1.58-.21Zm-.39-2.56c.42-1.39.21-3.21-.98-3.58-.07,1.58-.02,3.07.98,3.58Zm-2.37-1.39c-.16-1.49.56-3.86-1-3.97-.65,1.32-.49,3.67,1,3.97Zm-1.79,5.34c-.37,2.07,0,3.95,1,5.34.58.81,2.28,2.3,2.58,1.97.19-3.81-.35-6.92-3.58-7.32Zm10.69,14.05c-1.05-4.58-3.02-8.2-6.71-10.1.67,4.95,2.53,8.69,6.71,10.1Zm.39-11.48c-.07,2.9.44,5.23,2.79,5.74-.28-2.58-.35-5.34-2.79-5.74Zm3.37,13.84c-.09-1.35-.07-3.72-.98-4.55-2.67-2.42-2.62,5.16.98,4.55Zm0-9.9c.02,2.09.16,4.07,2.37,3.97v-3.18c-.95-.09-1.09-1.02-2.37-.79Zm1,11.48c1.65.02,3.39.6,4.16-.58-.07-.93-.21-1.77-.6-2.39-.81-.14-1.28,1.09-1.77.6.26-1.39-.67-1.58-.81-2.58-3.16-.26-1.05,3.35-.98,4.95Zm5.34,2.18c-.91-.33-2.14-1.23-3.16-.79-.16,1.39,2.76,2.39,3.16.79Zm-.79-3.37c.12,1.81,2,3.53,3.55,4.55,1.9-2.18-.91-5.18-3.55-4.55Zm6.13-4.16c-1-.19-1.37-1-2.58-.98-.56,1.79-.12,4.18,2.18,3.76.35-.72.49-1.63.39-2.79Zm.79-5.34c-.16-4.46-2.37-6.85-4.34-9.5,0,4.6,2.21,7.02,4.34,9.5Zm.39-14.84c0,4.16-.33,8.64,2.37,10.1.67-3.69.72-8.99-2.37-10.1Zm7.53,8.32c-1.86.12-2.74-1.72-4.16-1.39-.7,1.63.46,3.11.19,4.95,2.51,0,3.28-1.74,3.97-3.55Zm141.33-6.13c1.3-.33.77,1.21,1.97.98,1.72-1.23.21-4.02-1.58-4.16-.58.63-.37,2.02-.39,3.18Zm-2.39.39h1.21c.7-.67.56-2.21.79-3.37-.58-.28-.67-1.05-1.6-1-.39,1.14-1.32,3.09-.39,4.37Zm-.98-.39c.14-1.28.91-2.83-.6-3.18-.28.81-1.07,3.3.6,3.18Zm-14.84,21.58c1.11.19,1.25-.6,2.37-.39,1.05-3.04,1.97-9.48-1-11.1-1.49,2.72.49,6.67-.39,9.9-1.12-1.72.02-5.67-1.37-7.11-.79,2.81-.21,6.13.39,8.71Zm-1.18-12.47c-.35,2.18-1.95,5.88-1.58,8.71.09.74.84,2.97,1.58,2.37-.28-3.83.6-7.57,0-11.08Zm-2.18,10.69c-.67-4.04,2.67-8.34-.21-10.89-2.09,1.97-3.32,9.52.21,10.89Zm-3.16-2.97c-.84-3,1.16-4.18.98-7.13-3.53-.23-4,6.43-.98,7.13Zm-9.5-12.47c.09,1.65-1.23,4.18.39,4.95.49-1.23.81-4.27-.39-4.95Zm-2.39,5.74c2.37-1.42,2.81-7.97.39-9.69-.19,3.16-.14,6.57-.39,9.69Zm-3.76,0c-.14-1,.81-1.95,1.21-1.77-.37,1,.3,2.53,1.37,2.76.7-2.81,2.21-8.62-.58-10.29-.26,2.14-.23,4.53-1.18,5.95-.14-2.18.21-3.88.39-5.76-3.79-.46-4.13,7.67-1.21,9.11Zm-2.76-2.95c-.44-2.18,1.21-4.34-.39-5.34-.37,1.46-1.3,4.62.39,5.34Zm-4.74,5.74c2.04-.14,1.56-3.86-.21-3.97.12,1.28-.23,3,.21,3.97Zm-2,.98c-.33-1,.21-4.53-.79-5.53-.02,1.51-1.44,5.34.79,5.53Zm-1.97-.58c-.09-1.74,1.05-3.02.21-4.37h-.79c-.56,1.16-.77,3.97.58,4.37Zm-2.76-2.79c.46.19.53.81,1.39.6-.37-.88.09-2.6-1-2.76-.3.56-.49,1.23-.39,2.16Zm-8.9,13.26c2.04.21,1.86-3.37.98-4.34-.28.12-1.02-.23-.98.19.33.95-.23,2.69,0,4.16Zm-.81-1.77c-.14-1.56.67-3.3-.19-4.37h-.6c.14,1.67-.84,3.88.79,4.37Zm-4.74,4.95c2.46.49,1.49-2.46,2.58-3.37,0,.98.16,1.81.98,1.97.35-1.63.42-4.25-.98-4.74,0,.93.16,2-.79,1.97.37-2.14-.21-4.74-1.39-5.95-.14,3.37-.23,6.76-.39,10.1Zm-1.79.39c.42-2.3,1.6-7.48-1.37-7.92-.6,2.49-1.37,7.22,1.37,7.92Zm-19.79-14.45c.65-.16,1.23-.37,1.79-.6-.21-1.79.63-2.53.39-4.34-.95.02-1.53.42-2.37.58-.19,1.65-1.11,3.3.19,4.37Zm-41.77,19.79c1.84.72,2.42,3.79,3.97,4.16-1.14-1.58-1.58-3.83-3.97-4.16Zm4.76,9.29c-.49-4.13-2.3-6.95-5.34-8.5.26,1.12-.79.93-.79,1.79,2.93,1.49.44,8.39,3.16,10.08.28-2.3-1.18-5.51,1.39-5.74.91.39.39,2.23,1.58,2.37Zm3.95,11.48c-1.07-1.37-1.18-3.67-1.79-5.53-1-.05-2.23.12-2.95-.21.88,2.49,2.62,5.18,4.74,5.74Zm22.97,30.5c-1.16-.63-1.23-2.35-2.39-2.97-.09.98-1.42,1.16-1.97.58,0,1.35,2.6,2.81,4.37,2.39Zm163.67-59c-6.71-.12-6.97-6.74-7.92-12.66,1.09-2.3,4.79-1.95,5.37-4.74-2.86-3.83-9.76-3.6-13.87-6.13-3.67,3.76-10.59,4.3-10.08,12.27-1.09,1.16-3.14,1.49-4.99,1.23-1.14-.16-2.21-.56-2.95-1.11-1.28-6.27-6.83-11.01-13.47-11.01-7.62,0-13.77,6.18-13.77,13.77s6.16,13.77,13.77,13.77c3.09,0,5.95-1.02,8.25-2.76,1.32.05,2.62.12,3.81.28.74.09,1.42.26,2.02.46.67,5.58-2.9,8.36-7.71,9.11-3.48,3.53-3.32,10.66-4.76,16.24-4.65.72-3.79,6.27-10.08,5.16-6.39-1.16-3.95-10.96-9.71-13.87-2.49,1.56-2.9,7.67-7.9,6.92-.72-.09-1.44-.88-2.39-1.18-2.46-.79-6.09-.37-6.71-2.37-1.02-3.11,1.63-8.11,4.16-8.92,4.27-1.35,5.39,3.76,9.5,2.97.33-.72.49-1.6.79-2.37-2.81-2.39-6.02-4.41-6.55-9.11-2.65.58-2.83,3.28-4.13,4.95-4.44,5.67-12.36,7.87-22.58,8.11-1.74,4.41-8.22,2.23-11.68.81-1.02-3.14-.77-7.55-.79-11.68.46-.35.07-1.51.21-2.18-.09-4.13-.3-8.13-2.97-9.69-2.72,5.95-1.84,14.01-3.76,19.79-.65,1.95-2.16,3.28-2.76,5.13-.74,2.28-.6,4.46-1.18,6.34-1.77,5.69-5.02,9.69-9.5,13.05-1.05-1.07-3.18-1.05-3.97-2.37-.37-.74,1.21-1.07.21-1.18-2.86-.51-4.55-1.42-6.53-2.97-2-1.56-3-3.97-4.55-4.95-1.74-1.07-3.18,1.46-5.74,1,.14-.49.56-1.21.19-1.6-1.32,0-3-.28-4.55-.58-1.23-2.51-2.81-4.55-2.37-8.32,1.09-9.59,15.24-11.45,15.24-22.76-3.69,3.32-9.01,6.69-15.05,8.32,1.28.16,2.56.35,2.97,1.39-1.23,3.16-5.02,3.81-8.71,4.55-1.14,3.35-4.25,4.72-6.13,7.32,2.04.74,4.44,1.21,7.13.79.49,1.37,1.16,2.53,1.18,4.34v2.18c-.44,4.25-3.32,10.48-7.71,10.1-2.53-.23-3.46-3.09-4.16-5.74-4.32-.28-4.13-7.18-2.58-10.5-1.74-.44-3.58-.79-5.55-1-2.49,3.6,1.81,8.43-.19,12.08.58.46,1.86,2.16,2.18,1.58.12-1.51-.42-3.69.79-4.16,1.86,1.49,1.58,5.3,1.77,8.53.12,1.72.46,3.79,1.09,4.9.3.58.65.91,1.09.84-.23-2.51-2.37-7.55,1.79-7.32.91,1.51-.49,3.72.39,5.34.39.42,1.6-.39,2.18.19-.12,1.86-.37,3.74.58,4.95-.05-.84,1.25-.21,1.58-.19,1.09,2.14.91,5.55,2.39,7.32.23-1.11-1.02-2.35,0-2.97,1.7-.93,1.77,1.37,2.56,1.97.14-.86,1.14-.84,2.18-.79,1,2.11.56,5.64,2.76,6.53.12-1.02-.95-2.3,0-2.95,3.14,1.95,4.04,6.11,4.76,10.48,8.76,4.25,15.08,10.92,24.53,14.45,1.35,3.37,4.34,5.04,8.71,5.34-2.93-3.6-9.78-7.09-8.32-14.45,2.44.23,1.44,4.9,3.37,4.95-.51-.72.37-1.74,1.39-1.58.84,1.35,1.44,2.9,1.58,4.95,3.11.23,4.88,5.02,2.58,7.13,1.84-.02,2.53,2.04,4.55,1.18-.09-1.84-3.16-2.53-1.79-4.55,1.74.02,4.16,2.02,3.37,4.55,4.3.19,8.04,2,12.26,1.58-1.84-.56-4.79-1-3.95-3.55,1.9-.91,2.39,2.16,4.16,1.39-.84-1.25-1.58-3.51,0-3.76,1.84-.33,1.84,2.83,2.76,4.16,3.97,1.16,7.27,3.02,12.08,3.35.21.35,1.7.35,1.95,0h.02c.35-.09,1.16.26,1.18-.19-3.14-.37-6.74-.23-7.92-2.58,4.9-2.25,9.43,1.3,14.05,1.79.91-.09.3-1.7,1.21-1.79,12.59,4,22.49-3.32,33.84-4.34.84-1.53,2.28-2.49,4.55-2.58,3.55-5.16,8.97-7.94,11.27-13.66.56-1.37.51-2.88,1.18-4.76,1.07-2.9,5.11-4.95,4.76-8.9,6.18-5.88,8.2-15.91,10.89-25.13.88-3.07,2.39-5.95,3.16-8.92.33-1.25.09-2.51.39-3.74.6-2.46,1.77-4.37,3.11-6.13,2.25-2.93,4.97-5.41,6.18-9.13Zm-71.65,48.9c.7.95.28,2.83-.79,3.16-.42-.49-.05-1.79-1-1.77-.93,1.21,1.32,2.93-.19,3.55-2.6-1.51-3.14-7.64-1.21-10.29-.6-.88-1.6-1.84-3.16-1.18-.26-2.51-1.84-3.72-3.55-4.76-.02.84.7,2.25-.6,2.18-1.86-3.16,2.35-5.62.21-8.9-1.58-.07-.37,2.67-1.79,2.76-.93-1.6.39-2.76.21-4.74-8.32,2.18-11.68,9.29-15.84,15.63,1.95.28,1.49,2.16,1.79,3.74,1.18,6.67,6.3,10.38,11.48,13.47,5.69-.6,11.48,3.93,15.03-.39.21-.74-.74-.33-.58-1,2.3-5.2,4.23-12.47,3.37-19.58-1.3,2.53-.37,7.27-3.37,8.11Zm-6.74,7.32c.16-1.95,1.16-3.07,1.79-4.55,1.42.3,1.07,2.37,1.77,3.37-.63.91-1.97,1.86-3.55,1.18Zm.39-5.92c1.25,1.07.02,3.32-.98,3.95-1.3-1.58.91-2.49.98-3.95Zm-1.79-10.1c1.28.72,1.77,3.07,1.39,4.76-1.21-.81-1.74-3-1.39-4.76Zm-1.37,2.76c1.67.58,2.02,2.49,1.97,4.76-2.14-.07-2.46-2.69-1.97-4.76Zm-2.18,6.16c-.07-1.46.91-1.88,1-3.18,1.63.28.88,3,0,3.58-.51.02-.63-.33-1-.39Zm.21-10.69c.44,1.74.86,4.48-1.39,4.53-.67-1.12-1.23-4.99,1.39-4.53Zm-1.79,13.64c-.39-.86.14-1.93.58-2.56,1.02.16,1.09,2.39.21,2.76-.19-.16-.44-.21-.79-.21Zm-2.37,1.79c-.12-2.14,3.11-2.04,2.37.6-1.09.44-1.72-.09-2.37-.6Zm.58-11.87c1.95-.26,1.44,2.51,1,3.55-1.35-.07-1.42-2.35-1-3.55Zm-1.37,1.79c1.02.6,1.44,2.42.98,3.95-1.9-.12-1.32-2.53-.98-3.95Zm.19-10.29c.33-.07.35.19.6.19.37.53.12,1.72.19,2.58-1.42.07-1.77-2.14-.79-2.76Zm-.79,2.16c.09.81-.44,2.58-.6,3.76-1.63-.35-1.63-4.07.6-3.76Zm-2.76,3.18c2.16.58.09,4.18-1.58,2.56-.12-1.49,1.12-1.63,1.58-2.56Zm-2.79,5.34c.44.28.98.49,1.79.39.14.72-.14,1.05-.39,1.37-1.28.19-1.77-.88-1.39-1.77Zm0,2.56c1.25.09,1.67,1.49,1,2.39-1.16.02-1-1.23-1-2.39ZM103.31,19.21c-2.6-1.65-4.32-4.85-6.34-7.53-2.09-2.79-4.32-5.46-6.74-7.71-2.56.14-4.65-.23-5.53-1.79.53,0,1.16.12,1.18-.39-.77-.49-2.16-.35-2.37-1.39.37-.02.65-.12.79-.39-6.57.3-13.47.28-13.08,7.53-2.09,3-4.74,6.25-3.95,11.48,2.16.56,2.86,2.58,3.16,4.95v2c3.3,4.37,6.64,8.66,11.1,11.87-.02.3-.51.16-.39.58,2.18,1.02,8.13,2.56,8.69-.98-4.58-.49-10.34-3.39-7.5-8.71,3,1.7,3.18,6.18,7.9,6.13-.39-2.39-3.83-3.79-2.37-6.74,1.7.28,1.51,2.46,2.37,3.58-.02-.51.33-.63.6-.79.95.56,1.39,1.63,2.76,1.77-.56-2.21-3.37-5.71-.79-7.5,2.02,1.72,4.53,4.04,7.13,4.55-1-2.07-2-4.09-2.18-6.95h-.19c-.02.93-.09,1.77-.39,2.39-1.02-.05-2.32.19-2.58-.6v-1.18c.84-.16.93.37,1.58.39-.42-1.37-2.09-1.46-2.58-2.76.09-2.46.33-4.55-.19-6.74-1.93.6-.37,4.76-1.18,5.95-1.12-2.65-1.58-6.71-.79-10.1,3.35,2.3,5.64,5.69,6.32,10.69-.05-1.3.37-2.14.79-2.97,2.02,2.09,3.95,4.23,6.74,5.55.53-2.83-.84-5.16-2.76-6.13-.16.95,1.44,1.18.79,1.97Zm-13.08,3.16c1.79.49.65,3.23.81,4.95-1.65-.72-.56-2.95-.81-4.95Zm-.39-7.71c1.28.39.65,2.65.81,4.16-1.18-.49-.7-2.6-.81-4.16Zm-.58-6.34c.81-.21.77.42,1.39.39-.05,1.49.26,3.32-1,3.58-.88-.58-.16-2.76-.39-3.97Zm-2.58,8.92c2.46,1.16,3.21,4.44,2.76,7.92-2.28-1.18-3.44-4.46-2.76-7.92Zm-.79-10.29c.98-.16,1.21-.16,2.18,0-.95,1.77.16,3.58.39,5.34-2.35-.33-1.97-3.32-2.58-5.34Zm-1.39,19.98v-1.37c1.23-.05,1.81.56,1.79,1.77-.84.12-1.35-.09-1.79-.39Zm-.39-12.47c.23-.02.35.05.39.21,1.97.35,1.25,3.37,1.39,5.55-2.46-.07-1.63-3.39-1.79-5.76Zm.6-7.9c.02.93.3,2.16.39,3.55-1.37-.14-1.21-2.95-.39-3.55Zm-2.97,16.21c1.12-.67,2.32,1.18,1.58,2.39-1.14-.19-1.28-1.37-1.58-2.39Zm0-10.87c2.28.16,1.44,3.44,1.58,5.74-2.16-.3-2.3-3.76-1.58-5.74Zm-4.74,12.27c1.14,1.16,2.53,2.07,4.16,2.76.39,1.44-.16,2.62,0,4.37-3.07-.6-4.99-3.28-4.16-7.13Zm2.95-13.47c1.21.37,1.3,2.76,1,3.97-1.88.09-1.49-2.81-1-3.97Zm-1.18,9.11c1.56.02,2.42,1.65,2,2.97-1.58.02-2.58-1.49-2-2.97Zm-3.95-3.95c2.37.6,3.51,2.44,3.16,5.74-1.97-.84-4.39-2.95-3.16-5.74Zm7.92,120.75c-.79-.12-.23,1.09-.39,1.58-.16,1.35.42,3.46-.6,3.95-1.46-1.63-1.46-4.74-2.18-7.11-1.63-.26-1.32,1.42-2.76,1.37-1.53-2.88-.67-8.15-3.76-9.5-.05.6.23,1.56-.39,1.58-.72-3.23-1.67-6.23-3.55-8.29-.51,2.28,1.35,4.23,0,5.53-.44-1.77-2.28-5.37-.39-6.92,1.35-.02,1.28,1.35,2.16,1.79.23-4.65-3.35-5.51-6.32-6.95-.46.81.19,1.28.19,2.18-13.84,4.69-13.31,33.17-4.34,42.95.74.58,1.39,1.23,1.97,1.97,1.02.35-.67.46,0,1,1.97.16,4.44.42,6.13-.21-.51,0-1.16.12-1.18-.39,4.99-2.46,8.66-6.25,12.87-9.5-.02.35.16.51.39.6.14-1.07-.26-2.65.21-3.37.46-.23,1.42-.65,1.97-.19.23-3.35.21-6.92,2.56-8.13.07-1.56.46-3.16-.39-4.16-.77.14-1.49.53-2.16.21Zm-4.95,1.18c2.97.05,4.25,5.39,1.97,7.13-1.67-1.37-1.95-4.13-1.97-7.13Zm-1.39,2.76c1.86,1.53,2.95,6.04,1.18,8.32-1.84-1.49-2.58-5.88-1.18-8.32Zm-3.37-10.69h1.39c-.02,3.07,2.49,4.99,1.37,7.92-2.35-1.21-1.93-5.2-2.76-7.92Zm-.79,24.74c-1.35-.49-.93-2.76-1-4.55.95-.07.44,1.3,1.21,1.39-.77-2.39-.3-6.83,1.58-8.32,1.81,1.67,2.02,4.97,2.18,8.32-1.46.93-2.49,2.25-3.97,3.16Zm.79-19c.93.39,1.07,1.56,1,2.97-1.18-.14-.98-1.67-1-2.97Zm-1.97-.79c1.77.88,2.95,6.62.19,7.32.02-2.46-1.63-5.25-.19-7.32Zm-1.58-6.74c1.35.21,1.7,1.9,1.37,3.18-2.11.6-2.09-2.16-1.37-3.18Zm0,21.58c2.37,1.63,1.84,8.55-2.58,6.74.02-3.09,1.63-4.58,2.58-6.74Zm-.79-11.87c1.37,1.28.91,4.37.98,6.92-1.39-1.25-.88-4.39-.98-6.92Zm-1-8.71h.6c.6.46.53,2.46,0,2.97-1.44.16-1.12-2.37-.6-2.97Zm-1.39,8.71c2,1.72,4.18,9.99-.79,10.08.37-3.09-1.39-7.83.79-10.08Zm-1.18-7.13c.95.44,1.28,2.21.6,3.16-1.21-.33-.67-1.97-.6-3.16Zm-1.77,10.69c1.53,1.35,1.81,4.83,1.37,7.53-2.3-.65-1.97-5.16-1.37-7.53Zm-3.37-13.05c-.19-2.25,2.28-2.6,3.95-2.37.19,2.14-.63,3.3-2.37,3.55.28-1.7-1.09-1.16-1.58-1.18Zm3.95-8.53c.14,2.14-1.05,2.93-3.16,2.79.46-1.51,1.51-2.44,3.16-2.79Zm-.58,11.89c.95,1.63.14,4.32-.79,5.34-1.95-.86-1.77-5.25.79-5.34ZM215.74,60.58c-.23,1.42.42,1.95.79,2.76,2.56.07,3.83-1.18,3.55-3.95-1.9-.07-2.9.79-4.34,1.18Zm.79,32.85v-2.76c-6.16-3.32-7.85,5.16-7.53,11.48,1.67,1.23,3.9,2.74,6.34,2.18,2.56-.58,5.11-5.92,3.76-8.71-.56-1.16-1.7-1.21-2.58-2.18Zm-36.63,5.16c2.3,1.46,5.83-.02,5.34-3.18-1.93-2.02-6.09-.46-5.34,3.18Zm-26.71-12.29c.33-4.27-7.13-4.72-7.53-.79,1.72,1.37,5.32,2.11,7.53.79Zm-27.9,1.21c-.63,5.23-1.12,10.64-1.6,16.03,2.46,1.32,5.11,2.42,8.71,2.58,4.04-4.07,8.27-9.69,6.74-18.03-4.39-.42-8.92-.7-13.84-.58Zm11.48,59.77c.58-2-.84-3.62-2.76-3.76-1.77,1.7.53,4.74,2.76,3.76Zm-3.76-32.47c-4.16-2.07-13.17-3.37-12.47,3.18.56,5.16,10.36,8.53,13.66,3.16v-2.18c-.02-1.77-.74-2.81-1.18-4.16Zm-3.37,28.92c-.23,2.83.95,5.2,3.76,4.34-.6-2-1.44-4.74-3.76-4.34Zm-19.98-31.48c3.3,1.72,11.87,1.56,10.48-3.76-1.09-4.2-12.2-2.79-10.48,3.76Zm-1.79,15.42h-.79c-.49,5.37,1.28,10.2,5.13,11.89.05-2.46-1.16-4.34-1.97-6.16-.86-1.9-1.3-3.83-2.37-5.74Zm-7.32-1.58c-.02-.12-.05-.23-.21-.19.07.81-.07,1.46,0,2.16.44,3.86,3.02,8.32,5.95,8.71-.09-1.21-1-2.53-1.58-4.16-1-2.69-1.84-5.71-4.16-6.53Zm-8.13-29.69c-8.41,8.06,4.41,23.53,12.29,15.45v-7.53c-3.25-3.51-6.53-6.95-12.29-7.92Zm7.13,34.84c.42-3.9-2.02-9.52-4.95-8.13,1.44,2.93,1.86,6.85,4.95,8.13Zm-7.13-4.95c1.7-1.21.7-5.23-1.77-4.76-.58,1.97,0,4.46,1.77,4.76Z"/>
  </g>
  <g>
    <path class="cls-1" d="m61.18,195.4l.47,2.41c-.73.1-1.96.23-3.67.37-1.71.14-2.99.28-3.82.42,0,8.98.1,15.49.31,19.54-.42,1.36-1.13,2.04-2.12,2.04-.46,0-.9-.19-1.3-.58-.41-.38-.68-.87-.82-1.47,0-1.05.06-3.89.18-8.54.12-4.65.18-8.24.18-10.79l-3.98-.16c-.07-.7-.1-1.87-.1-3.51.35.07,1.01.16,1.99.26.98.1,1.64.18,1.99.21.1-1.12.16-2.71.16-4.77,0-3.98.33-6.71,1-8.17s2.26-2.2,4.79-2.2c2.7,0,4.91.51,6.63,1.52l-.31,1.89c-.45,0-1.16-.04-2.12-.13-.96-.09-1.69-.13-2.17-.13-1.43,0-2.51.31-3.25.94-.73.63-1.1,1.83-1.1,3.61,0,.56,0,1.16.03,1.81.02.65.03,1.06.03,1.23,0,1.29-.02,2.71-.05,4.24.56,0,1.34.02,2.33.05,1,.04,1.72.05,2.17.05.87,0,1.73-.05,2.57-.16Z"/>
    <path class="cls-1" d="m80.67,192l2.51.47v.52c0,2.38.15,6.39.45,12.05.3,5.66.57,10.02.81,13.1-.7.28-1.36.42-1.99.42-.56,0-1.19-.09-1.89-.26l-.42-1.36c-2.24,1.26-4.37,1.89-6.39,1.89-1.5,0-2.8-.35-3.9-1.05-1.1-.7-1.95-1.56-2.54-2.59-.59-1.03-1.07-2.31-1.41-3.82-.35-1.52-.57-2.9-.66-4.14-.09-1.24-.13-2.63-.13-4.17,0-4.47.28-8.57.84-12.31l2.36.52c.24,1.15.37,2.41.37,3.77,0,.77-.04,2.1-.13,3.98-.09,1.89-.13,3.32-.13,4.3,0,1.71.08,3.19.24,4.43.16,1.24.45,2.45.89,3.61.44,1.17,1.11,2.07,2.02,2.7.91.63,2.04.94,3.41.94,1.54,0,3.2-.35,4.98-1.05.07-1.29.14-4.6.21-9.93.07-5.33.24-9.33.52-12.02Z"/>
    <path class="cls-1" d="m104.66,191.26l2.36-.52c0,1.05.02,1.87.05,2.46.21,7.65.31,12.63.31,14.93,0,.8.02,2.06.05,3.77.03,1.71.05,3,.05,3.88,0,1.92-.06,3.58-.18,4.98-.12,1.4-.39,2.86-.81,4.37-.42,1.52-.99,2.76-1.7,3.72-.72.96-1.73,1.76-3.04,2.38-1.31.63-2.85.94-4.64.94-1.54,0-4.24-.23-8.12-.68-.04-.38-.1-.8-.18-1.26-.09-.45-.13-.8-.13-1.05,0-.52.05-.94.16-1.26.28.03,1.37.17,3.27.42,1.9.24,3.31.37,4.22.37,2.41,0,4.26-.73,5.55-2.2,1.29-1.47,1.96-4.21,1.99-8.23-1.71.98-3.51,1.47-5.4,1.47-1.57,0-2.95-.32-4.14-.97-1.19-.65-2.13-1.47-2.83-2.46-.7-1-1.27-2.2-1.7-3.61-.44-1.41-.73-2.78-.89-4.11-.16-1.33-.24-2.74-.24-4.24,0-3.77.83-6.93,2.49-9.48,1.66-2.55,4.18-3.82,7.57-3.82,1.99,0,3.95.61,5.87,1.83.03-.35.05-.89.05-1.62Zm-.63,21.96l.16-16.88c-.21-.63-.86-1.12-1.96-1.49-1.1-.37-2.31-.55-3.64-.55-1.89,0-3.35.86-4.4,2.59s-1.57,3.82-1.57,6.3c0,1.29.07,2.55.21,3.79.14,1.24.42,2.6.84,4.08.42,1.48,1.1,2.67,2.04,3.58.94.91,2.11,1.36,3.51,1.36,1.05,0,2.01-.25,2.88-.76.87-.51,1.52-1.18,1.94-2.01Z"/>
    <path class="cls-1" d="m127.35,192l2.51.47v.52c0,2.38.15,6.39.45,12.05.3,5.66.57,10.02.81,13.1-.7.28-1.36.42-1.99.42-.56,0-1.19-.09-1.89-.26l-.42-1.36c-2.24,1.26-4.37,1.89-6.39,1.89-1.5,0-2.8-.35-3.9-1.05-1.1-.7-1.95-1.56-2.54-2.59-.59-1.03-1.07-2.31-1.41-3.82-.35-1.52-.57-2.9-.66-4.14-.09-1.24-.13-2.63-.13-4.17,0-4.47.28-8.57.84-12.31l2.36.52c.24,1.15.37,2.41.37,3.77,0,.77-.04,2.1-.13,3.98-.09,1.89-.13,3.32-.13,4.3,0,1.71.08,3.19.24,4.43.16,1.24.45,2.45.89,3.61.44,1.17,1.11,2.07,2.02,2.7.91.63,2.04.94,3.41.94,1.54,0,3.2-.35,4.98-1.05.07-1.29.14-4.6.21-9.93.07-5.33.24-9.33.52-12.02Z"/>
    <path class="cls-1" d="m151.5,182.35l2.41.52,1.15,33.9c-.31,1.08-.93,1.62-1.83,1.62-.63,0-1.23-.25-1.81-.76-.58-.51-.94-1.13-1.07-1.86l1.15-33.43Z"/>
    <path class="cls-1" d="m161.24,181.99c.94,0,1.73.41,2.36,1.23.63.82.94,1.76.94,2.8,0,.77-.18,1.39-.55,1.86-.37.47-.86.71-1.49.71-.98,0-1.75-.4-2.31-1.21-.56-.8-.84-1.75-.84-2.83,0-.77.17-1.39.5-1.86.33-.47.79-.71,1.39-.71Zm-.73,9.38l2.41.52c.28,2.86.52,7.36.73,13.49.21,6.13.35,9.93.42,11.39-.31,1.08-.93,1.62-1.83,1.62-.63,0-1.23-.25-1.81-.76-.58-.51-.94-1.13-1.07-1.86.07-1.43.21-5.16.42-11.19.21-6.02.45-10.43.73-13.23Z"/>
    <path class="cls-1" d="m182.41,195.4l.47,2.41c-.73.1-1.96.23-3.67.37-1.71.14-2.99.28-3.82.42,0,8.98.1,15.49.31,19.54-.42,1.36-1.13,2.04-2.12,2.04-.46,0-.9-.19-1.3-.58-.41-.38-.68-.87-.82-1.47,0-1.05.06-3.89.18-8.54.12-4.65.18-8.24.18-10.79l-3.98-.16c-.07-.7-.1-1.87-.1-3.51.35.07,1.01.16,1.99.26.98.1,1.64.18,1.99.21.1-1.12.16-2.71.16-4.77,0-3.98.33-6.71,1-8.17s2.26-2.2,4.79-2.2c2.7,0,4.91.51,6.63,1.52l-.31,1.89c-.45,0-1.16-.04-2.12-.13-.96-.09-1.69-.13-2.17-.13-1.43,0-2.51.31-3.25.94-.73.63-1.1,1.83-1.1,3.61,0,.56,0,1.16.03,1.81.02.65.03,1.06.03,1.23,0,1.29-.02,2.71-.05,4.24.56,0,1.34.02,2.33.05,1,.04,1.72.05,2.17.05.87,0,1.73-.05,2.57-.16Z"/>
    <path class="cls-1" d="m207.45,213.21l.52,2.31c-1.54.56-3.82,1.18-6.84,1.86-3.02.68-5.27,1.02-6.73,1.02s-2.81-.5-3.93-1.49c-1.12-1-1.96-2.27-2.51-3.82-.56-1.55-.97-3.09-1.23-4.61-.26-1.52-.39-3.01-.39-4.48,0-8.73,3.95-13.1,11.84-13.1,1.89,0,3.54.6,4.98,1.81,1.43,1.21,2.15,2.77,2.15,4.69,0,1.05-.29,1.97-.86,2.78-.58.8-1.28,1.44-2.1,1.91-.82.47-1.87.9-3.14,1.28-1.28.38-2.4.66-3.38.84-.98.18-2.15.37-3.51.58s-2.31.37-2.83.47c.03,1.01.1,1.9.18,2.67.09.77.26,1.6.52,2.49.26.89.61,1.62,1.05,2.2.44.58,1.04,1.06,1.81,1.44.77.38,1.68.58,2.72.58,1.26,0,2.79-.11,4.61-.34,1.82-.23,3.43-.46,4.85-.71,1.41-.24,2.16-.37,2.23-.37Zm-17.76-11.21c4.75-1.36,8.64-2.79,11.68-4.3-.24-1.15-.58-1.99-1-2.51-.42-.52-1.05-.79-1.89-.79-2.13,0-4.06.73-5.79,2.2-1.73,1.47-2.73,3.27-3.01,5.4Z"/>
  </g>
</svg>