<?xml version="1.0" encoding="UTF-8"?>
<svg id="Layer_1" data-name="Layer 1" xmlns="http://www.w3.org/2000/svg" viewBox="0 0 200 200">
  <defs>
    <style>
      .cls-1 {
        fill: none;
        stroke: #fff;
        stroke-linecap: round;
        stroke-linejoin: round;
        stroke-width: 7px;
      }
    </style>
  </defs>
  <path class="cls-1" d="m74.93,62.72c-1.47-6.12,2.41-12.55,7.76-15.88s11.84-4.16,18.12-4.57c5.73-.38,11.48-.46,17.22-.26,3.18.11,6.6.41,9.05,2.45,2.4,2.01,3.31,5.26,3.87,8.34,1.67,9.17.98,19.65-5.53,26.32-5.31,5.44-13.32,7.17-20.89,7.82-4.72.4-9.64.45-13.98-1.45-9.64-4.22-12.94-16.15-13.89-26.63-.47-5.28-.65-10.58-.53-15.87.07-2.84.23-5.74,1.27-8.38,2.45-6.22,9.52-9.75,16.2-9.6s12.95,3.36,18.3,7.36c8.6,6.43,15.92,16.75,13.58,27.23-1.5,6.74-6.85,12.15-13.03,15.23s-13.17,4.12-20.05,4.71c-6.49.56-13.77.48-18.5-4-3.24-3.07-4.59-7.61-5.39-12-1.19-6.55-1.31-13.77,2.36-19.32,4.61-6.97,13.8-9.24,22.16-9.49,7.91-.24,16.05.89,23.01,4.67s12.59,10.5,13.74,18.33-2.92,16.51-10.24,19.52c-9.16,3.76-19.56-1.9-26.43-9.03-7.32-7.59-12.72-17.32-13.83-27.81-.19-1.76-.22-3.65.67-5.18,1.16-1.98,3.55-2.82,5.78-3.36,6.92-1.67,14.2-1.83,21.19-.47,3.14.61,6.85,2.26,7.01,5.45"/>
  <path class="cls-1" d="m30.58,155.51l2.08-1.05c.06-9.97,10.71-11.93,18.94-17.55,12.25-8.36,25.23-16.39,39.81-19.13,7.2-1.35,14.57-1.37,21.9-1.38,16.06-.03,32.34-.03,47.88,4.03s17.94,9.47,26.23,23.23c-15.95-.3-18.62,9.09-34.04,13.17-35.39,9.37-72.66,8.06-109.18,5.51,44.71-11,91.35-10.41,137.39-9.76-10.96-9.99-23.2-18.57-36.31-25.49-12.21-6.44-25.77-11.52-39.51-10.25-14.7,1.36-27.98,9.95-37.95,20.83s-17.09,24.02-24.12,37.01c1.72-12.85,4.79-25.52,9.15-37.74-3.01,4.85-6.83,9.2-11.25,12.8,23.56-32.53,67.7-44.62,107.66-40.56,1.99.2,4.06.47,5.7,1.6,2.16,1.48,3.15,4.12,3.96,6.61,4.49,13.88,6.95,28.42,7.28,43.01.06,2.71-.15,5.84-2.32,7.45-1.38,1.02-3.2,1.15-4.92,1.2-41.94,1.42-85.06-14.24-125.09-1.65,3.76-32.26,33.05-59.59,65.48-61.11"/>
</svg>